<svg width="168" height="167" viewBox="0 0 168 167" fill="none" xmlns="http://www.w3.org/2000/svg">
<path d="M15.0116 53.8506C17.9707 61.097 22.3413 65.7393 29.0322 69.775C29.7323 70.7375 27.9159 70.3979 27.418 70.3602C23.0049 69.8708 18.9219 65.9328 15.9018 62.6196C19.1872 74.7286 25.2186 88.2801 35.141 96.1313C46.4551 105.456 64.5342 108.653 76.3994 98.7738C72.2254 90.131 69.6357 79.7166 72.4427 70.2519C77.2037 58.4144 90.0486 62.7442 92.0544 74.7565C93.6795 84.4993 89.6632 94.518 83.0201 101.693C104.624 133.802 145.372 127.751 164.844 96.7578C164.866 96.7187 164.896 96.6846 164.933 96.6576C164.969 96.6306 165.01 96.6112 165.054 96.6007C165.097 96.5901 165.143 96.5886 165.187 96.5963C165.232 96.6039 165.274 96.6205 165.312 96.6451C165.35 96.6666 165.384 96.6956 165.411 96.7303C165.438 96.765 165.458 96.8048 165.47 96.8473C165.481 96.8898 165.484 96.9342 165.479 96.9778C165.473 97.0215 165.458 97.0636 165.436 97.1016C146.429 130.471 103.398 137.004 79.8621 104.544C70.9446 111.732 58.3462 112.963 47.7079 109.399C28.567 103.248 16.1725 82.3077 13.9481 63.065C12.7833 64.7907 12.3122 66.9031 11.1589 68.6287C9.80769 70.6478 6.09478 73.1176 6.27287 71.3947C7.53042 69.4377 8.6359 67.387 9.57959 65.2608C10.5714 63.1281 11.625 60.6882 12.5152 58.5127L12.6749 58.095L14.3404 53.8835C14.3648 53.8159 14.4087 53.7572 14.4665 53.7145C14.5242 53.6718 14.5933 53.6472 14.6651 53.6437C14.7368 53.6402 14.8079 53.658 14.8696 53.6948C14.9313 53.7316 14.9807 53.7858 15.0116 53.8506ZM85.7629 83.1649C89.6656 70.5367 78.3654 62.1234 76.3169 75.6177C75.7911 82.4166 76.953 89.24 79.6995 95.4817C82.6391 91.8959 84.7138 87.6815 85.7629 83.1649Z" fill="white"/>
<path d="M123.118 131.2C123.122 131.154 123.115 131.108 123.097 131.066C123.078 131.023 123.05 130.987 123.014 130.958C122.978 130.93 122.935 130.911 122.89 130.904C122.844 130.896 122.798 130.9 122.754 130.915C114.827 133.621 105.091 131.576 99.4291 126.762C99.3788 126.718 99.3137 126.695 99.247 126.698C99.1803 126.7 99.1171 126.728 99.0703 126.776C99.0238 126.824 98.9945 126.886 98.987 126.953C98.9795 127.019 98.9943 127.086 99.0291 127.144C103.619 134.626 115.483 134.948 122.805 131.615C122.889 131.578 122.961 131.518 123.014 131.443C123.067 131.368 123.099 131.28 123.106 131.188L123.118 131.2Z" fill="white"/>
<path d="M83.706 57.4245C80.6164 53.611 74.1299 55.8711 72.9291 60.3694C72.9201 60.3995 72.9215 60.4317 72.9332 60.4609C72.9448 60.49 72.966 60.5144 72.9933 60.53C73.0205 60.5456 73.0522 60.5515 73.0833 60.5468C73.1143 60.5421 73.1429 60.527 73.1643 60.504C75.9635 57.672 79.7073 56.0384 83.5394 57.6396C83.5681 57.6533 83.6007 57.6568 83.6316 57.6495C83.6626 57.6422 83.6901 57.6245 83.7096 57.5993C83.7291 57.5741 83.7394 57.5431 83.7387 57.5112C83.7381 57.4794 83.7265 57.4488 83.706 57.4245Z" fill="white"/>
<path d="M125.533 130.072C125.786 130.369 126.14 130.56 126.526 130.61C126.812 130.655 127.104 130.613 127.365 130.489C127.617 130.369 127.827 130.175 127.966 129.933C128.157 129.605 128.241 129.227 128.209 128.849C127.896 128.673 127.551 128.563 127.194 128.525C126.954 128.499 126.712 128.54 126.494 128.644C126.276 128.748 126.092 128.911 125.962 129.114C125.777 129.413 125.632 129.735 125.533 130.072Z" fill="white"/>
<path d="M71.4896 62.6004C71.5031 62.5812 71.51 62.5582 71.5095 62.5347C71.509 62.5112 71.501 62.4885 71.4867 62.4699C71.4724 62.4513 71.4525 62.4377 71.43 62.4311C71.4074 62.4246 71.3834 62.4253 71.3613 62.4333C71.1246 62.513 70.9067 62.6404 70.7211 62.8075C70.4714 63.035 70.2676 63.3083 70.1209 63.6126C69.9749 63.9156 69.8902 64.2446 69.8719 64.5805C69.8552 64.8298 69.8901 65.0799 69.9746 65.315C69.9831 65.3359 69.9977 65.3537 70.0164 65.3664C70.0351 65.379 70.0571 65.3858 70.0797 65.386C70.1022 65.3862 70.1243 65.3797 70.1432 65.3674C70.1621 65.355 70.1769 65.3374 70.1858 65.3167C70.2627 65.0934 70.3425 64.8961 70.4224 64.6989C70.5308 64.432 70.6509 64.1767 70.771 63.9213C70.891 63.666 71.0169 63.4164 71.163 63.158C71.2603 62.978 71.3635 62.7979 71.4896 62.6004Z" fill="white"/>
<path d="M41.6922 95.5925C36.0588 92.2626 29.8041 85.6026 27.7796 79.3376C27.7768 79.3226 27.7682 79.3094 27.7557 79.3008C27.7432 79.2922 27.7277 79.2889 27.7128 79.2917C27.6978 79.2945 27.6846 79.303 27.676 79.3156C27.6674 79.3281 27.6641 79.3435 27.6669 79.3585C28.1368 86.0319 35.324 93.7977 41.6436 95.694C41.6565 95.6975 41.6702 95.6963 41.6823 95.6907C41.6944 95.6851 41.7042 95.6754 41.71 95.6634C41.7157 95.6514 41.7171 95.6377 41.7139 95.6247C41.7106 95.6118 41.7029 95.6004 41.6922 95.5925Z" fill="white"/>
</svg>
