<svg width="185" height="30" viewBox="0 0 185 30" fill="none" xmlns="http://www.w3.org/2000/svg">
<path d="M40.0682 26.4316C39.7677 26.5253 39.4196 26.6115 39.0276 26.6977C38.6355 26.7839 38.2251 26.8551 37.7964 26.9188C37.3677 26.9788 36.928 27.0313 36.4846 27.0688C36.0413 27.1062 35.6126 27.125 35.2058 27.125C34.2275 27.125 33.3518 26.9788 32.5823 26.6864C31.8128 26.3941 31.1643 25.9743 30.6366 25.4271C30.109 24.8798 29.706 24.2164 29.4275 23.4368C29.149 22.6572 29.0098 21.7839 29.0098 20.8131C29.0098 19.8274 29.1307 18.9353 29.3725 18.1445C29.6143 17.3498 29.9588 16.6752 30.4131 16.1205C30.8675 15.5657 31.4208 15.1422 32.073 14.8498C32.7289 14.5575 33.4764 14.4113 34.3228 14.4113C34.7881 14.4113 35.2095 14.4563 35.5759 14.55C35.946 14.6437 36.3197 14.7749 36.6935 14.9435V9.43753L40.0608 8.88281V26.4316H40.0682ZM32.4504 20.652C32.4504 21.7164 32.6849 22.571 33.1503 23.2194C33.6156 23.8679 34.3118 24.1902 35.2315 24.1902C35.532 24.1902 35.8104 24.1789 36.0669 24.1565C36.3234 24.134 36.5323 24.1077 36.7008 24.074V17.8071C36.4883 17.6684 36.2135 17.5522 35.8764 17.4623C35.5356 17.3686 35.1949 17.3236 34.8468 17.3236C33.2492 17.3236 32.4504 18.4331 32.4504 20.652Z" fill="white"/>
<path d="M47.5031 14.3401C48.4961 14.3401 49.3278 14.4563 49.991 14.6887C50.6542 14.921 51.1855 15.2509 51.5849 15.6819C51.9843 16.113 52.2665 16.6377 52.4314 17.2561C52.5962 17.8746 52.6805 18.5605 52.6805 19.3139V26.4803C52.1968 26.589 51.5263 26.7164 50.6689 26.8626C49.8115 27.0088 48.7709 27.0837 47.5507 27.0837C46.7812 27.0837 46.085 27.0125 45.4585 26.8738C44.8319 26.7352 44.2933 26.5065 43.8426 26.1917C43.3919 25.8768 43.0438 25.4645 42.802 24.9548C42.5601 24.4451 42.4392 23.8229 42.4392 23.0807C42.4392 22.3723 42.5784 21.7689 42.8569 21.2779C43.1354 20.7831 43.5091 20.3933 43.9745 20.0972C44.4398 19.8049 44.9748 19.5912 45.5794 19.46C46.1803 19.3288 46.8069 19.2651 47.4554 19.2651C47.8915 19.2651 48.2799 19.2839 48.6206 19.3214C48.9614 19.3588 49.2362 19.4113 49.4451 19.4713V19.1489C49.4451 18.5642 49.2729 18.092 48.9248 17.7396C48.5767 17.3836 47.9757 17.2074 47.1147 17.2074C46.5431 17.2074 45.9751 17.2486 45.4182 17.3348C44.8612 17.4211 44.3775 17.541 43.9708 17.6947L43.5421 14.921C43.7363 14.8611 43.9818 14.7936 44.275 14.7261C44.5681 14.6549 44.8905 14.595 45.235 14.5425C45.5831 14.49 45.9458 14.4413 46.3305 14.4038C46.7226 14.3588 47.111 14.3401 47.5031 14.3401ZM47.7742 24.4188C48.104 24.4188 48.4228 24.4113 48.7232 24.3963C49.0237 24.3813 49.2655 24.3588 49.4451 24.3251V21.7127C49.3095 21.6827 49.1043 21.6527 48.8332 21.619C48.562 21.589 48.3128 21.574 48.0857 21.574C47.7706 21.574 47.4701 21.5927 47.1916 21.6302C46.9131 21.6677 46.6676 21.7426 46.4588 21.8513C46.2463 21.96 46.0814 22.1062 45.9605 22.2899C45.8395 22.4735 45.7809 22.7059 45.7809 22.9833C45.7809 23.523 45.9568 23.8978 46.3122 24.104C46.6713 24.3176 47.1586 24.4188 47.7742 24.4188Z" fill="white"/>
<path d="M55.6189 11.6341L58.9863 11.0793V14.6626H63.0315V17.5299H58.9863V21.8065C58.9863 22.5299 59.1108 23.1109 59.36 23.5419C59.6092 23.9729 60.1111 24.1903 60.8623 24.1903C61.225 24.1903 61.5951 24.1566 61.9799 24.0854C62.3646 24.0179 62.7127 23.9205 63.0315 23.7968L63.5078 26.4804C63.1011 26.6491 62.6504 26.7953 62.1521 26.919C61.6538 27.0426 61.0455 27.1026 60.32 27.1026C59.4003 27.1026 58.6382 26.9752 58.0372 26.7203C57.4327 26.4654 56.9527 26.1131 56.5899 25.6558C56.2271 25.2023 55.9743 24.6513 55.8314 24.0029C55.6885 23.3545 55.6152 22.6386 55.6152 21.8515L55.6189 11.6341Z" fill="white"/>
<path d="M69.5868 14.3401C70.5798 14.3401 71.4115 14.4563 72.0748 14.6887C72.738 14.921 73.2693 15.2509 73.6687 15.6819C74.0681 16.113 74.3502 16.6377 74.5151 17.2561C74.68 17.8746 74.7642 18.5605 74.7642 19.3139V26.4803C74.2806 26.589 73.61 26.7164 72.7526 26.8626C71.8952 27.0088 70.8546 27.0837 69.6344 27.0837C68.865 27.0837 68.1688 27.0125 67.5422 26.8738C66.9156 26.7352 66.377 26.5065 65.9263 26.1917C65.4756 25.8768 65.1275 25.4645 64.8857 24.9548C64.6439 24.4451 64.5229 23.8229 64.5229 23.0807C64.5229 22.3723 64.6622 21.7689 64.9407 21.2779C65.2191 20.7831 65.5929 20.3933 66.0582 20.0972C66.5236 19.8049 67.0585 19.5912 67.6631 19.46C68.264 19.3288 68.8906 19.2651 69.5392 19.2651C69.9752 19.2651 70.3636 19.2839 70.7044 19.3214C71.0451 19.3588 71.3199 19.4113 71.5288 19.4713V19.1489C71.5288 18.5642 71.3566 18.092 71.0085 17.7396C70.6604 17.3836 70.0595 17.2074 69.1984 17.2074C68.6268 17.2074 68.0589 17.2486 67.5019 17.3348C66.945 17.4211 66.4613 17.541 66.0546 17.6947L65.6259 14.921C65.8201 14.8611 66.0656 14.7936 66.3587 14.7261C66.6518 14.6549 66.9743 14.595 67.3187 14.5425C67.6668 14.49 68.0295 14.4413 68.4143 14.4038C68.8063 14.3588 69.1947 14.3401 69.5868 14.3401ZM69.8579 24.4188C70.1877 24.4188 70.5065 24.4113 70.807 24.3963C71.1074 24.3813 71.3493 24.3588 71.5288 24.3251V21.7127C71.3932 21.6827 71.188 21.6527 70.9169 21.619C70.6457 21.589 70.3966 21.574 70.1694 21.574C69.8543 21.574 69.5538 21.5927 69.2753 21.6302C68.9969 21.6677 68.7514 21.7426 68.5425 21.8513C68.33 21.96 68.1651 22.1062 68.0442 22.2899C67.9233 22.4735 67.8647 22.7059 67.8647 22.9833C67.8647 23.523 68.0405 23.8978 68.396 24.104C68.755 24.3176 69.2424 24.4188 69.8579 24.4188Z" fill="white"/>
<path d="M82.4733 8.88281C83.1072 8.88281 83.6239 8.93154 84.0233 9.03274C84.4227 9.13394 84.6828 9.22014 84.8037 9.29885L84.5106 10.5957C84.3457 10.517 84.1002 10.4383 83.7778 10.3521C83.4553 10.2659 83.045 10.2246 82.5466 10.2246C81.506 10.2246 80.7658 10.4945 80.3188 11.0342C79.8755 11.574 79.6519 12.436 79.6519 13.6242V14.8723H84.3531V16.1429H79.6519V26.8251H78.1826V13.5755C78.1826 12.02 78.5344 10.8468 79.2342 10.0597C79.9304 9.27637 81.0113 8.88281 82.4733 8.88281Z" fill="white"/>
<path d="M90.2266 14.5913C90.9961 14.5913 91.6483 14.7038 92.1832 14.9249C92.7182 15.1498 93.1506 15.4571 93.484 15.8507C93.8138 16.2442 94.0556 16.709 94.2058 17.2487C94.3561 17.7885 94.433 18.3732 94.433 19.0066V26.5441C94.2828 26.5891 94.063 26.6416 93.7771 26.694C93.4913 26.7465 93.1579 26.8065 92.7842 26.8665C92.4067 26.9264 91.989 26.9789 91.531 27.0164C91.073 27.0539 90.6003 27.0726 90.1167 27.0726C89.4974 27.0726 88.9295 27.0014 88.4092 26.8627C87.8888 26.724 87.4382 26.5029 87.0534 26.203C86.6687 25.9032 86.3682 25.5171 86.1484 25.0486C85.9285 24.5801 85.8223 24.0029 85.8223 23.3245C85.8223 22.676 85.9432 22.1213 86.185 21.6603C86.4269 21.1993 86.764 20.817 87.2037 20.5171C87.6397 20.2173 88.16 19.9961 88.7646 19.8574C89.3655 19.7188 90.0214 19.6513 90.7322 19.6513C90.9448 19.6513 91.1646 19.6625 91.3991 19.685C91.6336 19.7075 91.8571 19.7375 92.077 19.7787C92.2968 19.8162 92.4837 19.8574 92.6413 19.8949C92.7988 19.9324 92.9087 19.9699 92.9674 19.9999V19.2615C92.9674 18.8454 92.938 18.4406 92.8758 18.0471C92.8171 17.6535 92.6852 17.3012 92.48 16.9826C92.2748 16.6678 91.989 16.4129 91.6226 16.218C91.2525 16.0268 90.7689 15.9294 90.1643 15.9294C89.3069 15.9294 88.6657 15.9931 88.2443 16.1131C87.8229 16.2367 87.5114 16.3379 87.3172 16.4129L87.1121 15.0936C87.3685 14.9699 87.7643 14.8537 88.2992 14.7487C88.8269 14.6475 89.4718 14.5913 90.2266 14.5913ZM90.3622 25.7383C90.9338 25.7383 91.4358 25.7195 91.8645 25.682C92.2932 25.6446 92.6596 25.5921 92.96 25.5321V21.323C92.7952 21.2442 92.5313 21.1655 92.1686 21.0793C91.8058 20.9931 91.3112 20.9519 90.6773 20.9519C90.3145 20.9519 89.9371 20.9781 89.5487 21.0344C89.1566 21.0868 88.7939 21.203 88.4641 21.3792C88.1307 21.5553 87.8595 21.799 87.6507 22.1063C87.4382 22.4137 87.3356 22.8222 87.3356 23.332C87.3356 23.778 87.4052 24.1566 87.5517 24.4639C87.6946 24.7712 87.8998 25.0186 88.1637 25.2023C88.4275 25.3859 88.7426 25.5209 89.1127 25.6071C89.4754 25.697 89.8931 25.7383 90.3622 25.7383Z" fill="white"/>
<path d="M98.1816 15.2888C98.6177 15.1651 99.2076 15.0264 99.9441 14.8728C100.681 14.7191 101.586 14.6404 102.656 14.6404C103.546 14.6404 104.286 14.7716 104.883 15.0339C105.477 15.2963 105.953 15.6711 106.309 16.1546C106.664 16.6419 106.917 17.2228 107.067 17.9013C107.217 18.5797 107.294 19.3255 107.294 20.1426V26.8256H105.825V20.6299C105.825 19.7828 105.77 19.0669 105.657 18.4785C105.543 17.8938 105.356 17.414 105.092 17.0429C104.828 16.6719 104.48 16.4058 104.052 16.2446C103.623 16.0834 103.084 16.001 102.436 16.001C101.743 16.001 101.142 16.0384 100.64 16.1171C100.135 16.1959 99.8085 16.2633 99.6583 16.3233V26.8218H98.189V15.2888H98.1816Z" fill="white"/>
<path d="M114.593 14.5913C115.363 14.5913 116.015 14.7038 116.55 14.9249C117.085 15.1498 117.517 15.4571 117.851 15.8507C118.184 16.2442 118.422 16.709 118.573 17.2487C118.723 17.7885 118.8 18.3732 118.8 19.0066V26.5441C118.649 26.5891 118.43 26.6416 118.144 26.694C117.858 26.7465 117.525 26.8065 117.151 26.8665C116.773 26.9264 116.356 26.9789 115.898 27.0164C115.44 27.0539 114.967 27.0726 114.483 27.0726C113.864 27.0726 113.296 27.0014 112.776 26.8627C112.256 26.724 111.805 26.5029 111.42 26.203C111.035 25.9032 110.735 25.5171 110.515 25.0486C110.295 24.5801 110.189 24.0029 110.189 23.3245C110.189 22.676 110.31 22.1213 110.552 21.6603C110.794 21.1993 111.131 20.817 111.57 20.5171C112.006 20.2173 112.527 19.9961 113.131 19.8574C113.732 19.7188 114.388 19.6513 115.099 19.6513C115.311 19.6513 115.531 19.6625 115.766 19.685C116 19.7075 116.224 19.7375 116.444 19.7787C116.664 19.8162 116.85 19.8574 117.008 19.8949C117.166 19.9324 117.275 19.9699 117.334 19.9999V19.2615C117.334 18.8454 117.305 18.4406 117.242 18.0471C117.18 17.6535 117.052 17.3012 116.847 16.9826C116.645 16.6678 116.356 16.4129 115.989 16.218C115.619 16.0268 115.136 15.9294 114.531 15.9294C113.674 15.9294 113.032 15.9931 112.611 16.1131C112.19 16.2367 111.878 16.3379 111.684 16.4129L111.479 15.0936C111.735 14.9699 112.131 14.8537 112.666 14.7487C113.194 14.6475 113.838 14.5913 114.593 14.5913ZM114.729 25.7383C115.3 25.7383 115.802 25.7195 116.231 25.682C116.66 25.6446 117.026 25.5921 117.327 25.5321V21.323C117.162 21.2442 116.898 21.1655 116.535 21.0793C116.173 20.9931 115.678 20.9519 115.044 20.9519C114.681 20.9519 114.304 20.9781 113.915 21.0344C113.523 21.0868 113.161 21.203 112.831 21.3792C112.497 21.5553 112.226 21.799 112.017 22.1063C111.805 22.4137 111.702 22.8222 111.702 23.332C111.702 23.778 111.772 24.1566 111.918 24.4639C112.061 24.7712 112.267 25.0186 112.53 25.2023C112.794 25.3859 113.109 25.5209 113.479 25.6071C113.842 25.697 114.26 25.7383 114.729 25.7383Z" fill="white"/>
<path d="M123.926 14.8725H128.583V16.1431H123.926V22.4999C123.926 23.1783 123.981 23.7293 124.094 24.1528C124.208 24.5764 124.369 24.9025 124.582 25.1348C124.794 25.3672 125.047 25.5209 125.351 25.5959C125.652 25.6746 125.985 25.7121 126.344 25.7121C126.963 25.7121 127.458 25.6371 127.835 25.4909C128.213 25.3447 128.506 25.2098 128.719 25.0861L129.081 26.3342C128.869 26.4729 128.502 26.6304 127.975 26.8065C127.447 26.9827 126.875 27.0726 126.256 27.0726C125.534 27.0726 124.926 26.9752 124.435 26.784C123.944 26.5929 123.552 26.3005 123.259 25.907C122.966 25.5134 122.757 25.0262 122.636 24.4377C122.515 23.853 122.457 23.1596 122.457 22.3575V11.3567L123.926 11.0793V14.8725Z" fill="white"/>
<path d="M133.105 11.2633C133.105 11.6194 132.999 11.9005 132.79 12.1066C132.577 12.3165 132.321 12.4177 132.02 12.4177C131.72 12.4177 131.463 12.3128 131.251 12.1066C131.038 11.9005 130.936 11.6194 130.936 11.2633C130.936 10.9072 131.042 10.6261 131.251 10.42C131.463 10.2101 131.716 10.1089 132.02 10.1089C132.321 10.1089 132.577 10.2138 132.79 10.42C132.999 10.6261 133.105 10.911 133.105 11.2633ZM132.764 26.8256H131.295V14.8728H132.764V26.8256Z" fill="white"/>
<path d="M141.492 27.0806C140.587 27.0806 139.788 26.9345 139.096 26.6421C138.403 26.3498 137.828 25.93 137.366 25.3827C136.908 24.8355 136.556 24.1796 136.315 23.4187C136.073 22.6541 135.952 21.8108 135.952 20.8887C135.952 19.948 136.076 19.0934 136.326 18.3213C136.575 17.5491 136.934 16.8857 137.399 16.331C137.865 15.7763 138.433 15.349 139.096 15.0491C139.759 14.7493 140.506 14.5994 141.335 14.5994C141.968 14.5994 142.558 14.6518 143.108 14.7605C143.658 14.8692 144.083 15.0079 144.387 15.1766L144.002 16.4697C143.702 16.316 143.361 16.1923 142.983 16.0986C142.606 16.0049 142.1 15.9599 141.47 15.9599C140.173 15.9599 139.191 16.3872 138.52 17.2418C137.85 18.0964 137.513 19.3108 137.513 20.885C137.513 21.5934 137.59 22.2456 137.74 22.8378C137.89 23.43 138.136 23.9397 138.473 24.3632C138.814 24.7868 139.25 25.1204 139.785 25.3565C140.32 25.5964 140.972 25.7163 141.741 25.7163C142.375 25.7163 142.906 25.6414 143.335 25.4952C143.764 25.349 144.079 25.2216 144.273 25.1129L144.588 26.4097C144.317 26.5634 143.892 26.7133 143.31 26.8595C142.731 27.0057 142.122 27.0806 141.492 27.0806Z" fill="white"/>
<path d="M149.447 25.7608C150.289 25.7608 150.986 25.6184 151.539 25.3335C152.089 25.0487 152.363 24.5689 152.363 23.8868C152.363 23.5644 152.316 23.2871 152.217 23.0547C152.118 22.8223 151.957 22.6161 151.73 22.4287C151.502 22.2451 151.206 22.0652 150.835 21.8965C150.465 21.7278 150.011 21.5254 149.469 21.2968C149.033 21.1131 148.619 20.922 148.227 20.7308C147.835 20.5397 147.486 20.3148 147.186 20.0599C146.885 19.805 146.644 19.5014 146.464 19.1454C146.285 18.7893 146.193 18.3583 146.193 17.8485C146.193 16.8778 146.552 16.0906 147.267 15.4909C147.981 14.8912 148.967 14.5876 150.216 14.5876C151.015 14.5876 151.675 14.6589 152.195 14.7975C152.715 14.9362 153.082 15.0599 153.29 15.1686L152.95 16.5104C152.77 16.4167 152.462 16.293 152.034 16.1394C151.605 15.9857 150.975 15.907 150.147 15.907C149.813 15.907 149.502 15.9407 149.209 16.0119C148.915 16.0832 148.655 16.1881 148.428 16.338C148.201 16.4842 148.021 16.6716 147.886 16.8927C147.75 17.1139 147.684 17.3913 147.684 17.7136C147.684 18.0397 147.743 18.317 147.864 18.5494C147.985 18.7818 148.161 18.988 148.395 19.1641C148.63 19.3403 148.915 19.5089 149.253 19.6626C149.59 19.8163 149.978 19.985 150.418 20.1686C150.868 20.3523 151.304 20.5397 151.718 20.7308C152.133 20.922 152.499 21.1544 152.814 21.4242C153.129 21.6941 153.386 22.0164 153.584 22.395C153.778 22.7736 153.877 23.2458 153.877 23.8155C153.877 24.895 153.481 25.7121 152.69 26.2668C151.898 26.8215 150.817 27.0989 149.447 27.0989C148.421 27.0989 147.637 27.009 147.094 26.8328C146.552 26.6566 146.189 26.5217 146.01 26.428L146.394 25.0637C146.438 25.0937 146.537 25.1461 146.688 25.2136C146.838 25.2811 147.043 25.3598 147.3 25.446C147.556 25.5322 147.86 25.6034 148.216 25.6671C148.571 25.7308 148.981 25.7608 149.447 25.7608Z" fill="white"/>
<path d="M158.805 25.8317C158.805 26.1878 158.695 26.4877 158.479 26.735C158.259 26.9824 157.955 27.1061 157.563 27.1061C157.171 27.1061 156.867 26.9824 156.647 26.735C156.427 26.4877 156.321 26.1878 156.321 25.8317C156.321 25.4757 156.431 25.1758 156.647 24.9284C156.867 24.6811 157.171 24.5574 157.563 24.5574C157.955 24.5574 158.259 24.6811 158.479 24.9284C158.695 25.1758 158.805 25.4757 158.805 25.8317Z" fill="white"/>
<path d="M162.286 15.2888C162.722 15.1651 163.312 15.0264 164.048 14.8728C164.785 14.7191 165.69 14.6404 166.76 14.6404C167.65 14.6404 168.39 14.7716 168.988 15.0339C169.581 15.2963 170.058 15.6711 170.413 16.1546C170.768 16.6419 171.021 17.2228 171.171 17.9013C171.322 18.5797 171.399 19.3255 171.399 20.1426V26.8256H169.929V20.6299C169.929 19.7828 169.874 19.0669 169.761 18.4785C169.647 17.8938 169.46 17.414 169.196 17.0429C168.933 16.6719 168.585 16.4058 168.156 16.2446C167.727 16.0834 167.189 16.001 166.54 16.001C165.847 16.001 165.247 16.0384 164.745 16.1171C164.239 16.1959 163.913 16.2633 163.763 16.3233V26.8218H162.293V15.2888H162.286Z" fill="white"/>
<path d="M178.108 27.035C177.609 27.02 177.177 26.9526 176.807 26.8401C176.437 26.7239 176.129 26.5478 175.88 26.3079C175.631 26.068 175.444 25.7607 175.316 25.3821C175.187 25.0035 175.125 24.5313 175.125 23.9615V9.16017L176.594 8.88281V23.9128C176.594 24.2839 176.627 24.58 176.697 24.8049C176.767 25.0298 176.865 25.2059 177.001 25.3371C177.137 25.4683 177.312 25.5658 177.532 25.6257C177.752 25.6894 178.012 25.7419 178.313 25.7869L178.108 27.035Z" fill="white"/>
<path d="M185 24.224C185 24.655 184.93 25.0373 184.795 25.3709C184.659 25.7045 184.476 25.9893 184.249 26.2217C184.022 26.4541 183.758 26.6303 183.457 26.754C183.157 26.8777 182.842 26.9376 182.516 26.9376C182.19 26.9376 181.875 26.8777 181.574 26.754C181.274 26.6303 181.01 26.4541 180.783 26.2217C180.555 25.9893 180.372 25.7045 180.237 25.3709C180.101 25.0373 180.031 24.655 180.031 24.224C180.031 23.8004 180.101 23.4181 180.237 23.0808C180.372 22.7435 180.555 22.4586 180.783 22.23C181.01 22.0013 181.274 21.8252 181.574 21.7015C181.875 21.5778 182.19 21.5178 182.516 21.5178C182.842 21.5178 183.157 21.5778 183.457 21.7015C183.758 21.8252 184.022 22.0013 184.249 22.23C184.476 22.4586 184.659 22.7435 184.795 23.0808C184.93 23.4181 185 23.8004 185 24.224ZM184.568 24.224C184.568 23.8791 184.516 23.5643 184.414 23.2794C184.311 22.9946 184.168 22.751 183.989 22.5486C183.809 22.3462 183.593 22.1887 183.34 22.08C183.087 21.9713 182.813 21.9151 182.516 21.9151C182.219 21.9151 181.944 21.9713 181.691 22.08C181.439 22.1887 181.222 22.3462 181.043 22.5486C180.863 22.751 180.72 22.9946 180.618 23.2794C180.515 23.5643 180.464 23.8791 180.464 24.224C180.464 24.5688 180.515 24.8836 180.618 25.1685C180.72 25.4534 180.863 25.697 181.043 25.8994C181.222 26.1018 181.439 26.2592 181.691 26.3717C181.944 26.4841 182.219 26.5403 182.516 26.5403C182.813 26.5403 183.087 26.4841 183.34 26.3717C183.593 26.2592 183.809 26.1018 183.989 25.8994C184.168 25.697 184.311 25.4534 184.414 25.1685C184.516 24.8836 184.568 24.5688 184.568 24.224ZM183.307 25.7082C183.179 25.4721 183.047 25.251 182.911 25.0373C182.776 24.8237 182.655 24.655 182.552 24.5313C182.519 24.5351 182.486 24.5388 182.457 24.5388C182.428 24.5388 182.402 24.5388 182.377 24.5388H181.915V25.7082H181.512V22.8072C181.625 22.7809 181.75 22.7622 181.889 22.7472C182.028 22.7322 182.16 22.7247 182.281 22.7247C182.695 22.7247 183.014 22.8034 183.23 22.9571C183.446 23.1108 183.556 23.3469 183.556 23.6618C183.556 23.8417 183.509 24.0028 183.41 24.1453C183.311 24.2877 183.168 24.3926 182.977 24.4639C183.018 24.5088 183.069 24.5763 183.135 24.67C183.201 24.7637 183.271 24.8649 183.344 24.9811C183.417 25.0973 183.49 25.2172 183.564 25.3484C183.637 25.4796 183.699 25.5995 183.754 25.7082H183.307ZM181.915 24.2015H182.281C182.402 24.2015 182.516 24.194 182.618 24.179C182.721 24.164 182.809 24.134 182.886 24.0928C182.963 24.0516 183.021 23.9953 183.062 23.9241C183.102 23.8529 183.124 23.763 183.124 23.6543C183.124 23.5493 183.102 23.4594 183.054 23.3881C183.007 23.3169 182.948 23.257 182.871 23.212C182.794 23.167 182.71 23.1333 182.611 23.1145C182.512 23.0958 182.41 23.0845 182.303 23.0845C182.23 23.0845 182.16 23.0845 182.094 23.0883C182.028 23.092 181.97 23.0958 181.915 23.0995V24.2015Z" fill="white"/>
<path d="M26.5736 5.8171V0C24.8881 0.00374813 23.3492 0.314844 21.9898 0.888309C21.9824 0.892057 21.9714 0.895805 21.9641 0.899553V17.9686V17.9723C22.5064 16.0308 24.0673 14.7826 26.1779 14.7751V9.19043C24.6609 9.19417 23.2686 9.46779 22.0227 9.95504C22.3488 7.47753 24.0967 5.8246 26.5736 5.8171Z" fill="white"/>
<path d="M15.8338 11.0533C14.6979 9.43407 12.6643 8.39209 10.1067 8.39209C5.84161 8.39209 0.477295 11.593 0.477295 19.198C0.477295 25.4311 4.94756 30.0001 11.2829 30.0001C12.0084 30.0001 12.7046 29.9401 13.3751 29.8277V23.7257C12.7632 24.0218 12.0597 24.1867 11.2829 24.1867C8.52011 24.1867 6.65139 22.1515 6.65139 19.2017C6.65139 16.2519 8.52011 14.2167 11.2829 14.2167C13.6719 14.2167 15.438 15.8546 15.8667 18.186V11.1132L15.8338 11.0533Z" fill="white"/>
<path d="M18.0725 3.89801C16.7901 5.58092 15.9876 7.75858 15.8667 10.3186V10.3223V11.1132V18.1859V18.6432V29.1529V29.1567C16.7461 28.7856 17.5485 28.3059 18.2594 27.7211C19.355 26.8253 20.2783 25.5772 20.9306 24.1792C21.5828 22.7774 21.9638 21.2256 21.9638 19.7189V17.9722V17.9685V0.899501V0.895752C20.3993 1.55917 19.0765 2.57866 18.0725 3.89801Z" fill="white"/>
</svg>
