<svg width="200" height="22" viewBox="0 0 200 22" fill="none" xmlns="http://www.w3.org/2000/svg">
<path d="M0.000560193 7.8934C-0.00590617 7.74846 0.0438084 7.6066 0.139349 7.49741C0.23489 7.38822 0.368884 7.32011 0.513403 7.30728C39.8606 3.74484 79.313 -0.692159 118.88 0.0908449C123.491 0.132056 135.708 1.16231 129.558 8.23224C126.811 11.0483 121.389 12.193 118.152 14.4734C117.181 15.1602 117.035 16.0623 118.72 16.827C127.992 21.035 185.115 14.7985 199.63 12.2022C199.672 12.1951 199.715 12.1965 199.756 12.2063C199.798 12.2161 199.837 12.2342 199.871 12.2594C199.905 12.2846 199.934 12.3165 199.955 12.3531C199.977 12.3897 199.991 12.4302 199.997 12.4724C200.01 12.587 199.984 12.7027 199.922 12.8002C199.86 12.8977 199.767 12.9711 199.658 13.0081C187.404 16.9185 118.198 27.3632 113.184 17.7748C110.482 12.6235 121.71 10.4988 126.293 7.14702C127.479 6.27702 128.01 3.85017 125.442 3.06259C118.706 0.997476 99.4468 2.73747 89.0891 2.56347C59.4311 3.47927 29.8051 5.8237 0.211203 8.05824C0.184833 8.06076 0.158211 8.05781 0.133033 8.04957C0.107855 8.04133 0.0846721 8.02799 0.0648962 8.01036C0.0451203 7.99273 0.0291795 7.97121 0.0181115 7.94714C0.00704338 7.92307 0.00107005 7.897 0.000560193 7.87051V7.8934Z" fill="#00A800"/>
<path d="M70.4938 8.02116C70.4613 8.02357 70.4287 8.01957 70.3978 8.00937C70.3669 7.99916 70.3383 7.98298 70.3136 7.96172C70.2638 7.91878 70.2331 7.85779 70.2282 7.79221C70.2234 7.72663 70.2448 7.66181 70.2877 7.61201C70.3306 7.5622 70.3916 7.53151 70.4572 7.52665C77.8339 6.61086 85.2473 6.05678 92.6698 5.64468C100.289 5.5531 108.238 4.59152 115.798 5.91026C115.859 5.922 115.914 5.95637 115.951 6.00649C115.988 6.05661 116.004 6.11881 115.997 6.18066C115.99 6.24251 115.96 6.29946 115.913 6.34016C115.866 6.38086 115.805 6.40231 115.743 6.40022C100.93 5.51648 85.3984 7.64569 70.4938 8.02116Z" fill="#00A800"/>
<path d="M63.2956 7.8984C64.717 7.59608 66.1707 7.47302 67.6227 7.53209C67.6897 7.50384 67.7624 7.49194 67.8349 7.49738C67.9074 7.50281 67.9775 7.52541 68.0395 7.56333C68.1016 7.60126 68.1537 7.65341 68.1915 7.71545C68.2294 7.7775 68.2519 7.84765 68.2573 7.92014C68.2627 7.99263 68.2507 8.06537 68.2224 8.13232C68.1941 8.19927 68.1502 8.25851 68.0945 8.30515C68.0387 8.3518 67.9727 8.38451 67.9018 8.40057C67.8309 8.41662 67.7572 8.41556 67.6868 8.39749C66.2738 8.62405 64.8456 8.74346 63.4146 8.75466C62.8056 8.75924 62.7095 8.02203 63.2956 7.8984Z" fill="#00A800"/>
</svg>
