<svg width="16" height="16" viewBox="0 0 16 16" fill="none" xmlns="http://www.w3.org/2000/svg">
<path fill-rule="evenodd" clip-rule="evenodd" d="M14.6667 8C14.6667 11.682 11.682 14.6667 8 14.6667C4.318 14.6667 1.33333 11.682 1.33333 8C1.33333 4.318 4.318 1.33334 8 1.33334C11.682 1.33334 14.6667 4.318 14.6667 8ZM5.98 5.98C6.07375 5.88637 6.20083 5.83378 6.33333 5.83378C6.46583 5.83378 6.59291 5.88637 6.68666 5.98L8 7.29334L9.31333 5.98C9.40811 5.89168 9.53348 5.8436 9.66301 5.84589C9.79254 5.84817 9.91613 5.90065 10.0077 5.99226C10.0994 6.08386 10.1518 6.20745 10.1541 6.33699C10.1564 6.46652 10.1083 6.59189 10.02 6.68667L8.70666 8L10.02 9.31334C10.1083 9.40812 10.1564 9.53348 10.1541 9.66302C10.1518 9.79255 10.0994 9.91614 10.0077 10.0078C9.91613 10.0994 9.79254 10.1518 9.66301 10.1541C9.53348 10.1564 9.40811 10.1083 9.31333 10.02L8 8.70667L6.68666 10.02C6.59188 10.1083 6.46651 10.1564 6.33698 10.1541C6.20745 10.1518 6.08386 10.0994 5.99225 10.0078C5.90064 9.91614 5.84816 9.79255 5.84588 9.66302C5.84359 9.53348 5.89167 9.40812 5.98 9.31334L7.29333 8L5.98 6.68667C5.88636 6.59292 5.83377 6.46584 5.83377 6.33334C5.83377 6.20084 5.88636 6.07375 5.98 5.98Z" fill="#CA0000"/>
</svg>
