<svg width="16" height="17" viewBox="0 0 16 17" fill="none" xmlns="http://www.w3.org/2000/svg">
<path d="M7.75 2.5C4.57469 2.5 2 5.07469 2 8.25C2 11.4253 4.57469 14 7.75 14C10.9253 14 13.5 11.4253 13.5 8.25C13.5 5.07469 10.9253 2.5 7.75 2.5Z" stroke="#1E2022" stroke-width="0.5" stroke-miterlimit="10"/>
<path d="M6.875 7.375H7.875V11" stroke="#1E2022" stroke-width="0.5" stroke-linecap="round" stroke-linejoin="round"/>
<path d="M6.5 11.125H9.25" stroke="#1E2022" stroke-width="0.5" stroke-miterlimit="10" stroke-linecap="round"/>
<path d="M7.75 4.5625C7.5893 4.5625 7.43221 4.61015 7.2986 4.69943C7.16498 4.78871 7.06084 4.9156 6.99935 5.06407C6.93785 5.21253 6.92176 5.3759 6.95311 5.53351C6.98446 5.69112 7.06185 5.83589 7.17548 5.94952C7.28911 6.06315 7.43388 6.14054 7.59149 6.17189C7.7491 6.20324 7.91247 6.18715 8.06093 6.12565C8.2094 6.06416 8.33629 5.96002 8.42557 5.8264C8.51485 5.69279 8.5625 5.5357 8.5625 5.375C8.5625 5.15951 8.4769 4.95285 8.32452 4.80048C8.17215 4.6481 7.96549 4.5625 7.75 4.5625Z" fill="#1E2022"/>
</svg>
