<svg width="32" height="32" viewBox="0 0 32 32" fill="none" xmlns="http://www.w3.org/2000/svg">
<path fill-rule="evenodd" clip-rule="evenodd" d="M29.3332 15.9998C29.3332 23.3638 23.3638 29.3332 15.9998 29.3332C8.63584 29.3332 2.6665 23.3638 2.6665 15.9998C2.6665 8.63584 8.63584 2.6665 15.9998 2.6665C23.3638 2.6665 29.3332 8.63584 29.3332 15.9998ZM21.3732 11.9598C21.5604 12.1473 21.6656 12.4015 21.6656 12.6665C21.6656 12.9315 21.5604 13.1857 21.3732 13.3732L14.7065 20.0398C14.519 20.2271 14.2648 20.3323 13.9998 20.3323C13.7348 20.3323 13.4807 20.2271 13.2932 20.0398L10.6265 17.3732C10.5283 17.2816 10.4495 17.1712 10.3948 17.0486C10.3401 16.9259 10.3108 16.7935 10.3084 16.6592C10.306 16.5249 10.3307 16.3916 10.381 16.267C10.4313 16.1425 10.5062 16.0294 10.6011 15.9345C10.6961 15.8395 10.8092 15.7646 10.9337 15.7143C11.0582 15.664 11.1916 15.6393 11.3259 15.6417C11.4601 15.6441 11.5926 15.6735 11.7152 15.7281C11.8379 15.7828 11.9483 15.8616 12.0398 15.9598L13.9998 17.9198L16.9798 14.9385L19.9598 11.9598C20.1473 11.7726 20.4015 11.6674 20.6665 11.6674C20.9315 11.6674 21.1857 11.7726 21.3732 11.9598Z" fill="#00A800"/>
</svg>
