<svg width="16" height="16" viewBox="0 0 16 16" fill="none" xmlns="http://www.w3.org/2000/svg">
<g id="solar:letter-linear-secondary-light">
<g id="Group">
<path id="Vector" d="M1.33331 8C1.33331 5.486 1.33331 4.22866 2.11465 3.448C2.89531 2.66666 4.15265 2.66666 6.66665 2.66666H9.33331C11.8473 2.66666 13.1046 2.66666 13.8853 3.448C14.6666 4.22866 14.6666 5.486 14.6666 8C14.6666 10.514 14.6666 11.7713 13.8853 12.552C13.1046 13.3333 11.8473 13.3333 9.33331 13.3333H6.66665C4.15265 13.3333 2.89531 13.3333 2.11465 12.552C1.33331 11.7713 1.33331 10.514 1.33331 8Z" stroke="#48576A"/>
<path id="Vector_2" d="M4 5.33333L5.43933 6.53333C6.664 7.55333 7.276 8.06333 8 8.06333C8.724 8.06333 9.33667 7.55333 10.5607 6.53266L12 5.33333" stroke="#48576A" stroke-linecap="round"/>
</g>
</g>
</svg>
