<svg width="33" height="32" viewBox="0 0 33 32" fill="none" xmlns="http://www.w3.org/2000/svg">
<path fill-rule="evenodd" clip-rule="evenodd" d="M19.5097 5.00009H13.3097C13.1131 5.96069 12.6387 6.84239 11.9453 7.53572C11.252 8.22905 10.3703 8.70347 9.4097 8.90009C9.40931 9.18897 9.40931 9.47786 9.4097 9.76675C10.3703 9.96337 11.252 10.4378 11.9453 11.1311C12.6387 11.8245 13.1131 12.7062 13.3097 13.6668H19.5097C19.7063 12.7062 20.1807 11.8245 20.8741 11.1311C21.5674 10.4378 22.4491 9.96337 23.4097 9.76675C23.41 9.47786 23.41 9.18897 23.4097 8.90009C22.4491 8.70347 21.5674 8.22905 20.8741 7.53572C20.1807 6.84239 19.7063 5.96069 19.5097 5.00009ZM20.3164 3.00409C19.9497 3.00009 19.5604 3.00009 19.1457 3.00009H13.6737C13.2604 3.00009 12.8697 3.00009 12.5044 3.00409C12.4315 2.99753 12.3582 2.99887 12.2857 3.00809C11.683 3.01875 11.1484 3.04409 10.6844 3.10675C9.84703 3.21875 9.09103 3.46675 8.48437 4.07342C7.87637 4.68142 7.62836 5.43742 7.51636 6.27342C7.4537 6.73875 7.42836 7.27342 7.4177 7.87609C7.40857 7.94818 7.40722 8.02104 7.4137 8.09342C7.4097 8.46009 7.4097 8.85075 7.4097 9.26409V9.40275C7.4097 9.81609 7.4097 10.2068 7.4137 10.5734C7.40723 10.6458 7.40858 10.7187 7.4177 10.7908C7.42836 11.3948 7.4537 11.9281 7.51636 12.3921C7.62836 13.2294 7.87637 13.9854 8.48437 14.5921C9.09103 15.2001 9.84703 15.4481 10.6844 15.5601C11.1484 15.6228 11.683 15.6481 12.2857 15.6588C12.3582 15.6681 12.4316 15.6695 12.5044 15.6628C12.8697 15.6668 13.2604 15.6668 13.6737 15.6668H19.1457C19.559 15.6668 19.9497 15.6668 20.3164 15.6628C20.3887 15.6694 20.4616 15.668 20.5337 15.6588C21.1377 15.6481 21.6724 15.6228 22.135 15.5601C22.9724 15.4481 23.7284 15.2001 24.335 14.5921C24.943 13.9854 25.191 13.2294 25.303 12.3921C25.3662 11.8606 25.3992 11.326 25.4017 10.7908C25.4107 10.7187 25.4121 10.6458 25.4057 10.5734C25.4097 10.2068 25.4097 9.81609 25.4097 9.40275V9.26409C25.4097 8.85075 25.4097 8.46009 25.4057 8.09342C25.4123 8.02105 25.411 7.94817 25.4017 7.87609C25.3989 7.34088 25.366 6.80625 25.303 6.27475C25.191 5.43742 24.943 4.68142 24.3364 4.07475C23.7284 3.46675 22.9724 3.21875 22.1364 3.10675C21.6044 3.04372 21.0694 3.01078 20.5337 3.00809C20.4616 2.99892 20.3887 2.99758 20.3164 3.00409ZM21.6017 5.05875C21.7527 5.45765 21.9867 5.8199 22.2883 6.12149C22.5899 6.42308 22.9521 6.65712 23.351 6.80809C23.3426 6.719 23.3324 6.63009 23.3204 6.54142C23.239 5.92542 23.095 5.66142 22.9204 5.48809C22.747 5.31475 22.4844 5.17209 21.8697 5.08809C21.781 5.0765 21.6921 5.06673 21.603 5.05875H21.6017ZM23.351 11.8588C22.9521 12.0097 22.5899 12.2438 22.2883 12.5453C21.9867 12.8469 21.7527 13.2092 21.6017 13.6081C21.695 13.6001 21.7844 13.5894 21.8684 13.5788C22.4844 13.4948 22.7484 13.3521 22.9217 13.1788C23.095 13.0054 23.239 12.7414 23.3217 12.1254C23.3324 12.0414 23.343 11.9521 23.351 11.8588ZM11.2177 13.6081C11.0667 13.2092 10.8327 12.8469 10.5311 12.5453C10.2295 12.2438 9.86726 12.0097 9.46837 11.8588C9.4777 11.9521 9.48703 12.0414 9.49903 12.1254C9.5817 12.7414 9.72437 13.0054 9.89903 13.1788C10.0724 13.3521 10.335 13.4948 10.9497 13.5788C11.035 13.5894 11.1244 13.6001 11.2177 13.6081ZM9.46837 6.80809C9.86726 6.65712 10.2295 6.42308 10.5311 6.12149C10.8327 5.8199 11.0667 5.45765 11.2177 5.05875C11.1244 5.06675 11.035 5.07742 10.951 5.08942C10.335 5.17209 10.071 5.31475 9.8977 5.48942C9.72437 5.66275 9.5817 5.92542 9.4977 6.54009L9.46837 6.80809ZM16.4097 9.00009C16.3213 9.00009 16.2365 9.0352 16.174 9.09772C16.1115 9.16023 16.0764 9.24501 16.0764 9.33342C16.0764 9.42182 16.1115 9.50661 16.174 9.56912C16.2365 9.63163 16.3213 9.66675 16.4097 9.66675C16.4981 9.66675 16.5829 9.63163 16.6454 9.56912C16.7079 9.50661 16.743 9.42182 16.743 9.33342C16.743 9.24501 16.7079 9.16023 16.6454 9.09772C16.5829 9.0352 16.4981 9.00009 16.4097 9.00009ZM14.0764 9.33342C14.0764 8.71458 14.3222 8.12109 14.7598 7.6835C15.1974 7.24592 15.7909 7.00009 16.4097 7.00009C17.0285 7.00009 17.622 7.24592 18.0596 7.6835C18.4972 8.12109 18.743 8.71458 18.743 9.33342C18.743 9.95226 18.4972 10.5458 18.0596 10.9833C17.622 11.4209 17.0285 11.6668 16.4097 11.6668C15.7909 11.6668 15.1974 11.4209 14.7598 10.9833C14.3222 10.5458 14.0764 9.95226 14.0764 9.33342ZM11.9884 19.2641C14.4764 18.7828 17.139 18.8908 19.295 20.1761C19.5964 20.3561 19.8817 20.5814 20.1284 20.8588C20.6297 21.4228 20.8884 22.1214 20.9004 22.8228C21.155 22.6588 21.411 22.4761 21.6697 22.2801L24.0804 20.4601C24.6839 20.0166 25.4134 19.7774 26.1624 19.7774C26.9114 19.7774 27.6408 20.0166 28.2444 20.4601C29.359 21.3001 29.8044 22.8108 29.0057 24.0908C28.439 24.9988 27.5844 26.2561 26.7164 27.0614C25.8364 27.8748 24.587 28.5601 23.6417 29.0161C22.4924 29.5708 21.2524 29.8774 20.0457 30.0721C17.579 30.4721 15.0137 30.4108 12.5764 29.9081C11.3195 29.6494 10.0396 29.5185 8.75637 29.5174H5.74303C5.47781 29.5174 5.22346 29.4121 5.03592 29.2245C4.84839 29.037 4.74303 28.7826 4.74303 28.5174C4.74303 28.2522 4.84839 27.9979 5.03592 27.8103C5.22346 27.6228 5.47781 27.5174 5.74303 27.5174H8.75637C10.1724 27.5174 11.603 27.6654 12.9804 27.9494C15.2019 28.4053 17.4876 28.4554 19.727 28.0974C20.831 27.9188 21.863 27.6534 22.7724 27.2148C23.683 26.7748 24.707 26.1961 25.3564 25.5948C26.0137 24.9854 26.7484 23.9308 27.3097 23.0321C27.479 22.7601 27.455 22.3694 27.0404 22.0561C26.547 21.6828 25.7777 21.6828 25.2857 22.0561L22.8764 23.8761C21.9137 24.6028 20.7297 25.3801 19.2617 25.6148C19.1079 25.6391 18.9537 25.6605 18.799 25.6788C17.8648 25.7865 16.9218 25.7955 15.9857 25.7054C15.8526 25.6962 15.7227 25.6605 15.6037 25.6004C15.4846 25.5402 15.3788 25.4569 15.2925 25.3552C15.2061 25.2535 15.141 25.1356 15.1009 25.0084C15.0608 24.8812 15.0465 24.7472 15.059 24.6144C15.0715 24.4816 15.1104 24.3527 15.1734 24.2351C15.2364 24.1176 15.3224 24.0138 15.4261 23.93C15.5299 23.8462 15.6493 23.7839 15.7775 23.747C15.9056 23.71 16.0399 23.699 16.1724 23.7148C16.912 23.7866 17.657 23.7853 18.3964 23.7108L18.4364 23.7068C18.5608 23.6296 18.6665 23.5257 18.7459 23.4027C18.8253 23.2797 18.8764 23.1406 18.8955 22.9954C18.9147 22.8503 18.9013 22.7027 18.8565 22.5633C18.8117 22.4239 18.7365 22.2962 18.6364 22.1894C18.5301 22.0725 18.4064 21.9726 18.2697 21.8934C16.695 20.9534 14.591 20.7974 12.3684 21.2268C10.1974 21.6635 8.13926 22.5417 6.3217 23.8068C6.21454 23.8827 6.09346 23.9369 5.96538 23.9661C5.8373 23.9953 5.70472 23.999 5.57521 23.9769C5.4457 23.9549 5.32181 23.9076 5.21059 23.8376C5.09938 23.7677 5.00302 23.6766 4.92703 23.5694C4.85104 23.4623 4.7969 23.3412 4.7677 23.2131C4.7385 23.085 4.73481 22.9524 4.75685 22.8229C4.77889 22.6934 4.82622 22.5695 4.89614 22.4583C4.96606 22.3471 5.05721 22.2507 5.16436 22.1748C7.21456 20.7454 9.53768 19.7545 11.9884 19.2641Z" fill="#48576A"/>
</svg>
