<svg width="32" height="32" viewBox="0 0 32 32" fill="none" xmlns="http://www.w3.org/2000/svg">
<path fill-rule="evenodd" clip-rule="evenodd" d="M21.6665 5V7.25333L24.3332 9.38667V5H21.6665ZM26.3332 10.9867V4.66667C26.3332 3.74667 25.5865 3 24.6665 3H21.3332C20.4132 3 19.6665 3.74667 19.6665 4.66667V5.65333L19.1238 5.21867C18.2372 4.50915 17.1354 4.12259 15.9998 4.12259C14.8642 4.12259 13.7625 4.50915 12.8758 5.21867L2.0425 13.8853C1.83528 14.051 1.70236 14.2922 1.67298 14.5559C1.6436 14.8196 1.72017 15.0841 1.88584 15.2913C2.05151 15.4986 2.29271 15.6315 2.55639 15.6609C2.82007 15.6902 3.08461 15.6137 3.29184 15.448L4.33317 14.6133V28.3333H2.6665C2.40129 28.3333 2.14693 28.4387 1.9594 28.6262C1.77186 28.8138 1.6665 29.0681 1.6665 29.3333C1.6665 29.5986 1.77186 29.8529 1.9594 30.0404C2.14693 30.228 2.40129 30.3333 2.6665 30.3333H29.3332C29.5984 30.3333 29.8527 30.228 30.0403 30.0404C30.2278 29.8529 30.3332 29.5986 30.3332 29.3333C30.3332 29.0681 30.2278 28.8138 30.0403 28.6262C29.8527 28.4387 29.5984 28.3333 29.3332 28.3333H27.6665V14.6133L28.7092 15.448C28.9167 15.6098 29.1797 15.6832 29.441 15.6523C29.7024 15.6215 29.941 15.4889 30.1052 15.2833C30.2695 15.0776 30.346 14.8156 30.3183 14.5539C30.2906 14.2922 30.1608 14.052 29.9572 13.8853L26.3332 10.9867ZM25.6665 13.0133L17.8745 6.78C17.3425 6.35416 16.6813 6.12214 15.9998 6.12214C15.3184 6.12214 14.6572 6.35416 14.1252 6.78L6.33317 13.0133V28.3333H10.9998V22.6C10.9998 21.7147 10.9998 20.9507 11.0825 20.3387C11.1705 19.6827 11.3692 19.0547 11.8785 18.5453C12.3878 18.036 13.0172 17.8373 13.6718 17.7493C14.2838 17.6667 15.0478 17.6667 15.9345 17.6667H16.0652C16.9518 17.6667 17.7158 17.6667 18.3278 17.7493C18.9838 17.8373 19.6118 18.036 20.1212 18.5453C20.6305 19.0547 20.8292 19.6827 20.9172 20.3387C20.9998 20.9507 20.9998 21.7147 20.9998 22.6013V28.3333H25.6665V13.0133ZM18.9998 28.3333V22.6667C18.9998 21.696 18.9972 21.0667 18.9358 20.6053C18.8772 20.172 18.7838 20.036 18.7065 19.96C18.6305 19.884 18.4945 19.7893 18.0612 19.7307C17.5985 19.6693 16.9705 19.6667 15.9998 19.6667C15.0292 19.6667 14.3998 19.6693 13.9385 19.7307C13.5052 19.7893 13.3692 19.884 13.2932 19.96C13.2172 20.036 13.1225 20.172 13.0638 20.6053C13.0025 21.068 12.9998 21.696 12.9998 22.6667V28.3333H18.9998ZM15.9998 11C15.781 11 15.5642 11.0431 15.362 11.1269C15.1598 11.2106 14.9761 11.3334 14.8213 11.4882C14.6666 11.6429 14.5438 11.8267 14.46 12.0289C14.3763 12.2311 14.3332 12.4478 14.3332 12.6667C14.3332 12.8855 14.3763 13.1023 14.46 13.3045C14.5438 13.5067 14.6666 13.6904 14.8213 13.8452C14.9761 13.9999 15.1598 14.1227 15.362 14.2065C15.5642 14.2902 15.781 14.3333 15.9998 14.3333C16.4419 14.3333 16.8658 14.1577 17.1783 13.8452C17.4909 13.5326 17.6665 13.1087 17.6665 12.6667C17.6665 12.2246 17.4909 11.8007 17.1783 11.4882C16.8658 11.1756 16.4419 11 15.9998 11ZM12.3332 12.6667C12.3332 11.6942 12.7195 10.7616 13.4071 10.0739C14.0947 9.38631 15.0274 9 15.9998 9C16.9723 9 17.9049 9.38631 18.5926 10.0739C19.2802 10.7616 19.6665 11.6942 19.6665 12.6667C19.6665 13.6391 19.2802 14.5718 18.5926 15.2594C17.9049 15.947 16.9723 16.3333 15.9998 16.3333C15.0274 16.3333 14.0947 15.947 13.4071 15.2594C12.7195 14.5718 12.3332 13.6391 12.3332 12.6667Z" fill="#48576A"/>
</svg>
