<svg width="33" height="32" viewBox="0 0 33 32" fill="none" xmlns="http://www.w3.org/2000/svg">
<path fill-rule="evenodd" clip-rule="evenodd" d="M16.8197 3.6665C13.5487 3.6665 10.4116 4.96591 8.09868 7.27885C5.78573 9.5918 4.48633 12.7288 4.48633 15.9998C4.48633 19.2708 5.78573 22.4079 8.09868 24.7208C10.4116 27.0338 13.5487 28.3332 16.8197 28.3332C20.0907 28.3332 23.2277 27.0338 25.5406 24.7208C27.8536 22.4079 29.153 19.2708 29.153 15.9998C29.153 12.7288 27.8536 9.5918 25.5406 7.27885C23.2277 4.96591 20.0907 3.6665 16.8197 3.6665ZM2.48633 15.9998C2.48633 8.08384 8.90366 1.6665 16.8197 1.6665C24.7357 1.6665 31.153 8.08384 31.153 15.9998C31.153 23.9158 24.7357 30.3332 16.8197 30.3332C8.90366 30.3332 2.48633 23.9158 2.48633 15.9998ZM9.89033 14.9998C9.79542 15.6631 9.79542 16.3365 9.89033 16.9998H14.153C14.4182 16.9998 14.6726 17.1052 14.8601 17.2927C15.0476 17.4803 15.153 17.7346 15.153 17.9998C15.153 18.2651 15.0476 18.5194 14.8601 18.7069C14.6726 18.8945 14.4182 18.9998 14.153 18.9998H10.493C10.9071 19.8738 11.4979 20.6525 12.228 21.2867C12.9581 21.9209 13.8117 22.397 14.735 22.6849C15.6583 22.9728 16.6312 23.0662 17.5924 22.9593C18.5536 22.8524 19.4822 22.5475 20.3197 22.0638C20.4334 21.9971 20.5593 21.9536 20.6899 21.9357C20.8206 21.9179 20.9535 21.926 21.081 21.9597C21.2085 21.9934 21.3281 22.052 21.4328 22.1322C21.5376 22.2123 21.6255 22.3123 21.6914 22.4265C21.7574 22.5407 21.8001 22.6668 21.8171 22.7976C21.8341 22.9284 21.825 23.0613 21.7905 23.1885C21.7559 23.3158 21.6965 23.435 21.6157 23.5392C21.5349 23.6434 21.4343 23.7307 21.3197 23.7958C20.1752 24.4562 18.8994 24.8566 17.5828 24.9686C16.2662 25.0806 14.941 24.9014 13.7015 24.4438C12.4619 23.9862 11.3382 23.2613 10.4102 22.3207C9.48216 21.3801 8.77253 20.2468 8.33166 19.0012H7.48633C7.22093 19.0012 6.96641 18.8957 6.77875 18.7081C6.59109 18.5204 6.48566 18.2659 6.48566 18.0005C6.48566 17.7351 6.59109 17.4806 6.77875 17.2929C6.96641 17.1053 7.22093 16.9998 7.48633 16.9998H7.87433C7.80085 16.3352 7.80085 15.6645 7.87433 14.9998H7.48633C7.22111 14.9998 6.96676 14.8945 6.77922 14.7069C6.59168 14.5194 6.48633 14.2651 6.48633 13.9998C6.48633 13.7346 6.59168 13.4803 6.77922 13.2927C6.96676 13.1052 7.22111 12.9998 7.48633 12.9998H8.33166C8.77235 11.7539 9.48191 10.6202 10.41 9.67936C11.338 8.73847 12.4618 8.01341 13.7016 7.55566C14.9414 7.09791 16.2667 6.91868 17.5835 7.0307C18.9003 7.14272 20.1764 7.54324 21.321 8.20384C21.4347 8.26967 21.5344 8.35726 21.6142 8.46161C21.6941 8.56595 21.7526 8.68501 21.7865 8.81198C21.8204 8.93895 21.8289 9.07134 21.8116 9.2016C21.7943 9.33187 21.7515 9.45745 21.6857 9.57117C21.6198 9.6849 21.5322 9.78454 21.4279 9.86441C21.3235 9.94429 21.2045 10.0028 21.0775 10.0367C20.9506 10.0706 20.8182 10.0791 20.6879 10.0618C20.5576 10.0445 20.4321 10.0017 20.3183 9.93584C19.4809 9.45214 18.5522 9.14723 17.591 9.04034C16.6299 8.93344 15.6569 9.02689 14.7337 9.31477C13.8104 9.60265 12.9568 10.0787 12.2267 10.713C11.4966 11.3472 10.9058 12.1259 10.4917 12.9998H14.153C14.4182 12.9998 14.6726 13.1052 14.8601 13.2927C15.0476 13.4803 15.153 13.7346 15.153 13.9998C15.153 14.2651 15.0476 14.5194 14.8601 14.7069C14.6726 14.8945 14.4182 14.9998 14.153 14.9998H9.89033Z" fill="#48576A"/>
</svg>
