<svg width="17" height="16" viewBox="0 0 17 16" fill="none" xmlns="http://www.w3.org/2000/svg">
<g id="ph:eye-duotone" clip-path="url(#clip0_15_6713)">
<g id="Group">
<path id="Vector" opacity="0.2" d="M8.81982 3.5C3.81982 3.5 1.81982 8 1.81982 8C1.81982 8 3.81982 12.5 8.81982 12.5C13.8198 12.5 15.8198 8 15.8198 8C15.8198 8 13.8198 3.5 8.81982 3.5ZM8.81982 10.5C8.32537 10.5 7.84202 10.3534 7.4309 10.0787C7.01978 9.80397 6.69934 9.41352 6.51013 8.95671C6.32091 8.49989 6.2714 7.99723 6.36786 7.51227C6.46432 7.02732 6.70243 6.58186 7.05206 6.23223C7.40169 5.8826 7.84715 5.6445 8.3321 5.54804C8.81705 5.45157 9.31972 5.50108 9.77653 5.6903C10.2333 5.87952 10.6238 6.19995 10.8985 6.61107C11.1732 7.0222 11.3198 7.50555 11.3198 8C11.3198 8.66304 11.0564 9.29893 10.5876 9.76777C10.1188 10.2366 9.48287 10.5 8.81982 10.5Z" fill="#D86800"/>
<path id="Vector_2" d="M16.2767 7.7975C16.2548 7.74813 15.7254 6.57375 14.5486 5.39687C12.9804 3.82875 10.9998 3 8.81982 3C6.63982 3 4.65919 3.82875 3.09107 5.39687C1.91419 6.57375 1.38232 7.75 1.36294 7.7975C1.33451 7.86144 1.31982 7.93064 1.31982 8.00062C1.31982 8.0706 1.33451 8.1398 1.36294 8.20375C1.38482 8.25312 1.91419 9.42688 3.09107 10.6038C4.65919 12.1713 6.63982 13 8.81982 13C10.9998 13 12.9804 12.1713 14.5486 10.6038C15.7254 9.42688 16.2548 8.25312 16.2767 8.20375C16.3051 8.1398 16.3198 8.0706 16.3198 8.00062C16.3198 7.93064 16.3051 7.86144 16.2767 7.7975ZM8.81982 12C6.89607 12 5.21544 11.3006 3.82419 9.92188C3.25335 9.35418 2.76769 8.70685 2.38232 8C2.76758 7.29309 3.25325 6.64574 3.82419 6.07812C5.21544 4.69938 6.89607 4 8.81982 4C10.7436 4 12.4242 4.69938 13.8154 6.07812C14.3874 6.6456 14.8741 7.29295 15.2604 8C14.8098 8.84125 12.8467 12 8.81982 12ZM8.81982 5C8.22647 5 7.64646 5.17595 7.15311 5.50559C6.65976 5.83524 6.27524 6.30377 6.04818 6.85195C5.82112 7.40013 5.76171 8.00333 5.87746 8.58527C5.99322 9.16721 6.27894 9.70176 6.6985 10.1213C7.11806 10.5409 7.6526 10.8266 8.23455 10.9424C8.81649 11.0581 9.41969 10.9987 9.96787 10.7716C10.516 10.5446 10.9846 10.1601 11.3142 9.66671C11.6439 9.17336 11.8198 8.59334 11.8198 8C11.819 7.2046 11.5027 6.44202 10.9402 5.87959C10.3778 5.31716 9.61521 5.00083 8.81982 5ZM8.81982 10C8.42426 10 8.03758 9.8827 7.70868 9.66294C7.37978 9.44318 7.12343 9.13082 6.97206 8.76537C6.82068 8.39991 6.78108 7.99778 6.85825 7.60982C6.93542 7.22186 7.1259 6.86549 7.4056 6.58579C7.68531 6.30608 8.04168 6.1156 8.42964 6.03843C8.8176 5.96126 9.21973 6.00087 9.58519 6.15224C9.95064 6.30362 10.263 6.55996 10.4828 6.88886C10.7025 7.21776 10.8198 7.60444 10.8198 8C10.8198 8.53043 10.6091 9.03914 10.234 9.41421C9.85896 9.78929 9.35025 10 8.81982 10Z" fill="#D86800"/>
</g>
</g>
<defs>
<clipPath id="clip0_15_6713">
<rect width="16" height="16" fill="white" transform="translate(0.819824)"/>
</clipPath>
</defs>
</svg>
