<svg width="17" height="16" viewBox="0 0 17 16" fill="none" xmlns="http://www.w3.org/2000/svg">
<path opacity="0.2" d="M12.3282 9.23101C12.2597 9.29121 12.2087 9.36884 12.1808 9.45567C12.1528 9.54249 12.1489 9.63527 12.1695 9.72414L13.0145 13.3829C13.0368 13.4785 13.0305 13.5785 12.9964 13.6705C12.9623 13.7625 12.9019 13.8424 12.8226 13.9003C12.7434 13.9582 12.6489 13.9916 12.5508 13.9961C12.4528 14.0007 12.3556 13.9763 12.2713 13.926L9.0776 11.9885C8.99999 11.9413 8.91092 11.9164 8.8201 11.9164C8.72927 11.9164 8.6402 11.9413 8.5626 11.9885L5.36885 13.926C5.28458 13.9763 5.18737 14.0007 5.08935 13.9961C4.99132 13.9916 4.8968 13.9582 4.81757 13.9003C4.73834 13.8424 4.6779 13.7625 4.64379 13.6705C4.60967 13.5785 4.60339 13.4785 4.62572 13.3829L5.47072 9.72414C5.49126 9.63527 5.48735 9.54249 5.4594 9.45567C5.43145 9.36884 5.3805 9.29121 5.31197 9.23101L2.4926 6.77164C2.41722 6.70758 2.36254 6.62259 2.33548 6.52745C2.30842 6.4323 2.31019 6.33126 2.34056 6.23712C2.37094 6.14297 2.42856 6.05996 2.50613 5.99857C2.58371 5.93719 2.67774 5.90019 2.77635 5.89226L6.4926 5.57101C6.58326 5.56294 6.67001 5.53026 6.74347 5.47652C6.81693 5.42277 6.87433 5.34998 6.90947 5.26602L8.36135 1.80601C8.40013 1.71656 8.46421 1.64039 8.54572 1.58689C8.62723 1.53339 8.7226 1.50488 8.8201 1.50488C8.9176 1.50488 9.01297 1.53339 9.09447 1.58689C9.17598 1.64039 9.24007 1.71656 9.27885 1.80601L10.7307 5.26602C10.7659 5.34998 10.8233 5.42277 10.8967 5.47652C10.9702 5.53026 11.0569 5.56294 11.1476 5.57101L14.8638 5.89226C14.9625 5.90019 15.0565 5.93719 15.1341 5.99857C15.2116 6.05996 15.2693 6.14297 15.2996 6.23712C15.33 6.33126 15.3318 6.4323 15.3047 6.52745C15.2777 6.62259 15.223 6.70758 15.1476 6.77164L12.3282 9.23101Z" fill="#D86800"/>
<path d="M15.77 6.0805C15.7095 5.89387 15.5954 5.72917 15.4419 5.60692C15.2884 5.48467 15.1024 5.41028 14.9069 5.393L11.195 5.073L9.74003 1.613C9.66428 1.43145 9.5365 1.27637 9.37279 1.16729C9.20908 1.05821 9.01676 1 8.82003 1C8.62331 1 8.43099 1.05821 8.26727 1.16729C8.10356 1.27637 7.97579 1.43145 7.90003 1.613L6.44941 5.073L2.73316 5.39488C2.53693 5.41137 2.34994 5.48542 2.19563 5.60776C2.04133 5.7301 1.92657 5.89527 1.86577 6.08257C1.80496 6.26986 1.8008 6.47094 1.85382 6.66059C1.90683 6.85024 2.01466 7.02002 2.16378 7.14863L4.98316 9.61238L4.13816 13.2711C4.09348 13.4626 4.10623 13.663 4.17481 13.8472C4.2434 14.0315 4.36478 14.1914 4.52378 14.3071C4.68278 14.4227 4.87234 14.489 5.06877 14.4975C5.26519 14.5059 5.45976 14.4564 5.62816 14.3549L8.81566 12.4174L12.01 14.3549C12.1784 14.4564 12.373 14.5059 12.5694 14.4975C12.7659 14.489 12.9554 14.4227 13.1144 14.3071C13.2734 14.1914 13.3948 14.0315 13.4634 13.8472C13.532 13.663 13.5447 13.4626 13.5 13.2711L12.6557 9.60863L15.4744 7.14863C15.6235 7.01957 15.7311 6.84931 15.7837 6.65926C15.8363 6.46921 15.8316 6.26785 15.77 6.0805ZM14.8188 6.393L12 8.853C11.8628 8.97233 11.7608 9.12681 11.7048 9.29982C11.6489 9.47283 11.6412 9.65781 11.6825 9.83488L12.5294 13.4999L9.33753 11.5624C9.18181 11.4675 9.00299 11.4174 8.82066 11.4174C8.63833 11.4174 8.45951 11.4675 8.30378 11.5624L5.11628 13.4999L5.95753 9.83737C5.99888 9.66031 5.99116 9.47533 5.93522 9.30232C5.87928 9.12931 5.77722 8.97483 5.64003 8.8555L2.82003 6.39675C2.8198 6.39488 2.8198 6.39299 2.82003 6.39113L6.53503 6.06988C6.71641 6.05389 6.88998 5.98868 7.03702 5.8813C7.18406 5.77391 7.29899 5.62841 7.36941 5.4605L8.82003 2.00488L10.27 5.4605C10.3405 5.62841 10.4554 5.77391 10.6024 5.8813C10.7495 5.98868 10.923 6.05389 11.1044 6.06988L14.82 6.39113V6.3955L14.8188 6.393Z" fill="#D86800"/>
</svg>
