<svg width="16" height="16" viewBox="0 0 16 16" fill="none" xmlns="http://www.w3.org/2000/svg">
<path fill-rule="evenodd" clip-rule="evenodd" d="M3.14533 2.06134C3.96267 1.20067 5.31467 1.36134 5.99067 2.31734L6.83067 3.50667C7.37133 4.27134 7.326 5.33334 6.68067 6.01334L6.51733 6.18467C6.51687 6.186 6.51643 6.18733 6.516 6.18867C6.50733 6.21267 6.486 6.29 6.50733 6.43667C6.552 6.74 6.786 7.35734 7.738 8.35933C8.69267 9.36467 9.27133 9.60134 9.54 9.64534C9.60473 9.65984 9.67203 9.65824 9.736 9.64067L10.008 9.354C10.5907 8.74067 11.4987 8.62 12.2313 9.04134L13.5047 9.77467C14.5933 10.4013 14.8467 11.934 13.9767 12.85L13.03 13.8467C12.7347 14.158 12.3313 14.424 11.8333 14.4733C10.6173 14.5933 7.80067 14.4367 4.848 11.3273C2.092 8.42667 1.56867 5.90334 1.50267 4.67067C1.47 4.06134 1.74133 3.53934 2.09867 3.16267L3.14533 2.06134ZM5.174 2.89467C4.83267 2.412 4.21867 2.38267 3.87 2.75L2.82333 3.85134C2.60333 4.08467 2.48667 4.35134 2.50133 4.61734C2.55467 5.624 2.98867 7.91867 5.57267 10.6387C8.282 13.492 10.7787 13.572 11.7353 13.4773C11.924 13.4593 12.1187 13.354 12.3047 13.158L13.2513 12.1613C13.6607 11.7307 13.5533 10.956 13.006 10.6413L11.7327 9.908C11.3907 9.71134 10.99 9.772 10.7333 10.0427L10.4293 10.3627L10.078 10.0287C10.4293 10.362 10.4293 10.3627 10.4287 10.3633L10.428 10.364L10.426 10.3667L10.4213 10.3707L10.412 10.38C10.384 10.4075 10.3537 10.4325 10.3213 10.4547C10.268 10.492 10.1973 10.534 10.1073 10.5693C9.92333 10.642 9.68067 10.6807 9.38 10.632C8.79467 10.5373 8.028 10.1167 7.01333 9.048C5.99467 7.976 5.60467 7.17667 5.518 6.58134C5.47333 6.27867 5.50867 6.03667 5.574 5.85334C5.61026 5.75117 5.66198 5.65516 5.72733 5.56867L5.74733 5.544L5.75667 5.534L5.76067 5.52934L5.76267 5.52734L5.764 5.52667C5.764 5.52667 5.764 5.52534 6.11933 5.862L5.76467 5.52534L5.956 5.324C6.25267 5.01134 6.296 4.482 6.01467 4.084L5.174 2.89467Z" fill="#48576A"/>
<path d="M8.83996 1.25333C8.86139 1.12247 8.93387 1.00545 9.04148 0.927958C9.14909 0.850467 9.28305 0.818834 9.41396 0.840001C9.43063 0.843335 9.4853 0.853334 9.51396 0.860001C9.57063 0.872001 9.64996 0.892001 9.74863 0.920001C9.94663 0.978001 10.2233 1.07333 10.5553 1.22533C11.2193 1.53 12.1026 2.06267 13.02 2.97933C13.9373 3.89667 14.47 4.78067 14.7746 5.44467C14.9266 5.77667 15.0213 6.05267 15.0793 6.25133C15.1085 6.35116 15.1337 6.45213 15.1546 6.554L15.158 6.57467C15.1799 6.70669 15.1491 6.84205 15.0721 6.95155C14.9952 7.06106 14.8783 7.13592 14.7466 7.16C14.6161 7.1812 14.4825 7.14982 14.375 7.07272C14.2676 6.99563 14.195 6.87911 14.1733 6.74867C14.1597 6.67499 14.1416 6.60219 14.1193 6.53067C14.0512 6.30171 13.9665 6.07801 13.866 5.86133C13.606 5.29467 13.138 4.512 12.3126 3.68667C11.488 2.86133 10.7046 2.394 10.138 2.134C9.9215 2.03348 9.69802 1.94881 9.4693 1.88067C9.39915 1.86088 9.32846 1.84309 9.2573 1.82733C9.12622 1.80569 9.00891 1.73336 8.93071 1.62597C8.8525 1.51857 8.81967 1.38473 8.8393 1.25333H8.83996Z" fill="#48576A"/>
<path fill-rule="evenodd" clip-rule="evenodd" d="M8.99064 3.55333C9.00861 3.49016 9.03886 3.43114 9.07965 3.37966C9.12044 3.32818 9.17097 3.28524 9.22837 3.25329C9.28576 3.22135 9.34888 3.20102 9.41413 3.19348C9.47938 3.18594 9.54547 3.19132 9.60864 3.20933L9.4713 3.69L9.6093 3.21H9.61064L9.6133 3.21066L9.61797 3.212L9.6313 3.21666C9.68388 3.23428 9.73571 3.25407 9.78664 3.276C9.88397 3.31733 10.0166 3.38133 10.18 3.478C10.5066 3.67133 10.9513 3.99133 11.4746 4.51533C11.998 5.03866 12.3193 5.484 12.512 5.81C12.6086 5.97333 12.6726 6.106 12.7146 6.20333C12.7366 6.25425 12.7564 6.30608 12.774 6.35866L12.778 6.372L12.7793 6.37733L12.78 6.37933V6.38066L12.3 6.51866L12.7806 6.38133C12.8179 6.50863 12.8032 6.64555 12.7395 6.76194C12.6759 6.87834 12.5686 6.96469 12.4413 7.002C12.314 7.0393 12.1771 7.02451 12.0607 6.96088C11.9443 6.89724 11.8579 6.78997 11.8206 6.66266L11.8186 6.656C11.7718 6.5399 11.716 6.42757 11.652 6.32C11.5026 6.06866 11.2346 5.68866 10.768 5.222C10.3013 4.75533 9.9213 4.48733 9.67064 4.33866C9.56306 4.2746 9.45073 4.21888 9.33464 4.172L9.32797 4.16933C9.20191 4.13161 9.0958 4.04571 9.03266 3.93028C8.96951 3.81484 8.95441 3.67983 8.99064 3.55333Z" fill="#48576A"/>
</svg>
