<svg width="32" height="32" viewBox="0 0 32 32" fill="none" xmlns="http://www.w3.org/2000/svg">
<path fill-rule="evenodd" clip-rule="evenodd" d="M21.6667 5V7.25333L24.3334 9.38667V5H21.6667ZM26.3334 10.9867V4.66667C26.3334 3.74667 25.5867 3 24.6667 3H21.3334C20.4134 3 19.6667 3.74667 19.6667 4.66667V5.65333L19.1241 5.21867C18.2374 4.50915 17.1357 4.12259 16.0001 4.12259C14.8645 4.12259 13.7627 4.50915 12.8761 5.21867L2.04275 13.8853C1.83553 14.051 1.7026 14.2922 1.67322 14.5559C1.64384 14.8196 1.72041 15.0841 1.88608 15.2913C2.05175 15.4986 2.29296 15.6315 2.55663 15.6609C2.82031 15.6902 3.08486 15.6137 3.29208 15.448L4.33341 14.6133V28.3333H2.66675C2.40153 28.3333 2.14718 28.4387 1.95964 28.6262C1.7721 28.8138 1.66675 29.0681 1.66675 29.3333C1.66675 29.5986 1.7721 29.8529 1.95964 30.0404C2.14718 30.228 2.40153 30.3333 2.66675 30.3333H29.3334C29.5986 30.3333 29.853 30.228 30.0405 30.0404C30.2281 29.8529 30.3334 29.5986 30.3334 29.3333C30.3334 29.0681 30.2281 28.8138 30.0405 28.6262C29.853 28.4387 29.5986 28.3333 29.3334 28.3333H27.6667V14.6133L28.7094 15.448C28.917 15.6098 29.1799 15.6832 29.4413 15.6523C29.7026 15.6215 29.9413 15.4889 30.1055 15.2833C30.2697 15.0776 30.3463 14.8156 30.3185 14.5539C30.2908 14.2922 30.1611 14.052 29.9574 13.8853L26.3334 10.9867ZM25.6667 13.0133L17.8747 6.78C17.3427 6.35416 16.6816 6.12214 16.0001 6.12214C15.3186 6.12214 14.6574 6.35416 14.1254 6.78L6.33342 13.0133V28.3333H11.0001V22.6C11.0001 21.7147 11.0001 20.9507 11.0827 20.3387C11.1707 19.6827 11.3694 19.0547 11.8787 18.5453C12.3881 18.036 13.0174 17.8373 13.6721 17.7493C14.2841 17.6667 15.0481 17.6667 15.9347 17.6667H16.0654C16.9521 17.6667 17.7161 17.6667 18.3281 17.7493C18.9841 17.8373 19.6121 18.036 20.1214 18.5453C20.6307 19.0547 20.8294 19.6827 20.9174 20.3387C21.0001 20.9507 21.0001 21.7147 21.0001 22.6013V28.3333H25.6667V13.0133ZM19.0001 28.3333V22.6667C19.0001 21.696 18.9974 21.0667 18.9361 20.6053C18.8774 20.172 18.7841 20.036 18.7067 19.96C18.6307 19.884 18.4947 19.7893 18.0614 19.7307C17.5987 19.6693 16.9707 19.6667 16.0001 19.6667C15.0294 19.6667 14.4001 19.6693 13.9387 19.7307C13.5054 19.7893 13.3694 19.884 13.2934 19.96C13.2174 20.036 13.1227 20.172 13.0641 20.6053C13.0027 21.068 13.0001 21.696 13.0001 22.6667V28.3333H19.0001ZM16.0001 11C15.7812 11 15.5645 11.0431 15.3623 11.1269C15.1601 11.2106 14.9763 11.3334 14.8216 11.4882C14.6668 11.6429 14.544 11.8267 14.4603 12.0289C14.3765 12.2311 14.3334 12.4478 14.3334 12.6667C14.3334 12.8855 14.3765 13.1023 14.4603 13.3045C14.544 13.5067 14.6668 13.6904 14.8216 13.8452C14.9763 13.9999 15.1601 14.1227 15.3623 14.2065C15.5645 14.2902 15.7812 14.3333 16.0001 14.3333C16.4421 14.3333 16.866 14.1577 17.1786 13.8452C17.4912 13.5326 17.6667 13.1087 17.6667 12.6667C17.6667 12.2246 17.4912 11.8007 17.1786 11.4882C16.866 11.1756 16.4421 11 16.0001 11ZM12.3334 12.6667C12.3334 11.6942 12.7197 10.7616 13.4074 10.0739C14.095 9.38631 15.0276 9 16.0001 9C16.9725 9 17.9052 9.38631 18.5928 10.0739C19.2804 10.7616 19.6667 11.6942 19.6667 12.6667C19.6667 13.6391 19.2804 14.5718 18.5928 15.2594C17.9052 15.947 16.9725 16.3333 16.0001 16.3333C15.0276 16.3333 14.095 15.947 13.4074 15.2594C12.7197 14.5718 12.3334 13.6391 12.3334 12.6667Z" fill="white"/>
</svg>
