<svg width="16" height="16" viewBox="0 0 16 16" fill="none" xmlns="http://www.w3.org/2000/svg">
<path fill-rule="evenodd" clip-rule="evenodd" d="M2.252 3.38799C2 3.74666 2 4.81333 2 6.94466V7.994C2 11.7527 4.826 13.5773 6.59933 14.3513C7.08 14.5613 7.32067 14.6667 8 14.6667C8.68 14.6667 8.92 14.5613 9.40067 14.3513C11.174 13.5767 14 11.7533 14 7.994V6.94466C14 4.81266 14 3.74666 13.748 3.38799C13.4967 3.02999 12.4947 2.68666 10.49 2.00066L10.108 1.86999C9.06333 1.51199 8.54133 1.33333 8 1.33333C7.45933 1.33333 6.93667 1.51199 5.892 1.86999L5.51 1.99999C3.50533 2.68666 2.50333 3.02999 2.252 3.38799ZM10.0393 7C10.123 6.90049 10.1645 6.77233 10.1553 6.64268C10.146 6.51303 10.0866 6.39208 9.9897 6.30548C9.89278 6.21887 9.76594 6.17341 9.63607 6.17874C9.5062 6.18406 9.38351 6.23975 9.294 6.334L7.286 8.58333L6.706 7.934C6.61736 7.83604 6.49355 7.77716 6.36163 7.77019C6.22971 7.76323 6.1004 7.80875 6.00193 7.89682C5.90347 7.98489 5.84386 8.10835 5.83613 8.24023C5.8284 8.37211 5.87317 8.50169 5.96067 8.60066L6.91267 9.66733C6.95957 9.71987 7.01704 9.76191 7.08132 9.79069C7.1456 9.81948 7.21524 9.83436 7.28567 9.83436C7.3561 9.83436 7.42573 9.81948 7.49001 9.79069C7.55429 9.76191 7.61176 9.71987 7.65867 9.66733L10.04 7.00066L10.0393 7Z" fill="#00A800"/>
</svg>
