<svg width="32" height="32" viewBox="0 0 32 32" fill="none" xmlns="http://www.w3.org/2000/svg">
<path fill-rule="evenodd" clip-rule="evenodd" d="M19.1 5.00009H12.9C12.7034 5.96069 12.229 6.84239 11.5357 7.53572C10.8423 8.22905 9.96063 8.70347 9.00003 8.90009C8.99965 9.18897 8.99965 9.47786 9.00003 9.76675C9.96063 9.96337 10.8423 10.4378 11.5357 11.1311C12.229 11.8245 12.7034 12.7062 12.9 13.6668H19.1C19.2966 12.7062 19.7711 11.8245 20.4644 11.1311C21.1577 10.4378 22.0394 9.96337 23 9.76675C23.0003 9.47786 23.0003 9.18897 23 8.90009C22.0394 8.70347 21.1577 8.22905 20.4644 7.53572C19.7711 6.84239 19.2966 5.96069 19.1 5.00009ZM19.9067 3.00409C19.54 3.00009 19.1507 3.00009 18.736 3.00009H13.264C12.8507 3.00009 12.46 3.00009 12.0947 3.00409C12.0219 2.99753 11.9486 2.99887 11.876 3.00809C11.2734 3.01875 10.7387 3.04409 10.2747 3.10675C9.43736 3.21875 8.68136 3.46675 8.0747 4.07342C7.4667 4.68142 7.2187 5.43742 7.1067 6.27342C7.04403 6.73875 7.0187 7.27342 7.00803 7.87609C6.9989 7.94818 6.99756 8.02104 7.00403 8.09342C7.00003 8.46009 7.00003 8.85075 7.00003 9.26409V9.40275C7.00003 9.81609 7.00003 10.2068 7.00403 10.5734C6.99757 10.6458 6.99891 10.7187 7.00803 10.7908C7.0187 11.3948 7.04403 11.9281 7.1067 12.3921C7.2187 13.2294 7.4667 13.9854 8.0747 14.5921C8.68136 15.2001 9.43736 15.4481 10.2747 15.5601C10.7387 15.6228 11.2734 15.6481 11.876 15.6588C11.9486 15.6681 12.0219 15.6695 12.0947 15.6628C12.46 15.6668 12.8507 15.6668 13.264 15.6668H18.736C19.1494 15.6668 19.54 15.6668 19.9067 15.6628C19.9791 15.6694 20.052 15.668 20.124 15.6588C20.728 15.6481 21.2627 15.6228 21.7254 15.5601C22.5627 15.4481 23.3187 15.2001 23.9254 14.5921C24.5334 13.9854 24.7814 13.2294 24.8934 12.3921C24.9565 11.8606 24.9895 11.326 24.992 10.7908C25.0011 10.7187 25.0024 10.6458 24.996 10.5734C25 10.2068 25 9.81609 25 9.40275V9.26409C25 8.85075 25 8.46009 24.996 8.09342C25.0026 8.02105 25.0013 7.94817 24.992 7.87609C24.9893 7.34088 24.9563 6.80625 24.8934 6.27475C24.7814 5.43742 24.5334 4.68142 23.9267 4.07475C23.3187 3.46675 22.5627 3.21875 21.7267 3.10675C21.1948 3.04372 20.6597 3.01078 20.124 3.00809C20.0519 2.99892 19.9791 2.99758 19.9067 3.00409ZM21.192 5.05875C21.343 5.45765 21.577 5.8199 21.8786 6.12149C22.1802 6.42308 22.5425 6.65712 22.9414 6.80809C22.933 6.719 22.9227 6.63009 22.9107 6.54142C22.8294 5.92542 22.6854 5.66142 22.5107 5.48809C22.3374 5.31475 22.0747 5.17209 21.46 5.08809C21.3713 5.0765 21.2824 5.06673 21.1934 5.05875H21.192ZM22.9414 11.8588C22.5425 12.0097 22.1802 12.2438 21.8786 12.5453C21.577 12.8469 21.343 13.2092 21.192 13.6081C21.2854 13.6001 21.3747 13.5894 21.4587 13.5788C22.0747 13.4948 22.3387 13.3521 22.512 13.1788C22.6854 13.0054 22.8294 12.7414 22.912 12.1254C22.9227 12.0414 22.9334 11.9521 22.9414 11.8588ZM10.808 13.6081C10.6571 13.2092 10.423 12.8469 10.1214 12.5453C9.81985 12.2438 9.4576 12.0097 9.0587 11.8588C9.06803 11.9521 9.07736 12.0414 9.08936 12.1254C9.17203 12.7414 9.3147 13.0054 9.48936 13.1788C9.6627 13.3521 9.92536 13.4948 10.54 13.5788C10.6254 13.5894 10.7147 13.6001 10.808 13.6081ZM9.0587 6.80809C9.4576 6.65712 9.81985 6.42308 10.1214 6.12149C10.423 5.8199 10.6571 5.45765 10.808 5.05875C10.7147 5.06675 10.6254 5.07742 10.5414 5.08942C9.92536 5.17209 9.66136 5.31475 9.48803 5.48942C9.3147 5.66275 9.17203 5.92542 9.08803 6.54009L9.0587 6.80809ZM16 9.00009C15.9116 9.00009 15.8268 9.0352 15.7643 9.09772C15.7018 9.16023 15.6667 9.24501 15.6667 9.33342C15.6667 9.42182 15.7018 9.50661 15.7643 9.56912C15.8268 9.63163 15.9116 9.66675 16 9.66675C16.0884 9.66675 16.1732 9.63163 16.2357 9.56912C16.2982 9.50661 16.3334 9.42182 16.3334 9.33342C16.3334 9.24501 16.2982 9.16023 16.2357 9.09772C16.1732 9.0352 16.0884 9.00009 16 9.00009ZM13.6667 9.33342C13.6667 8.71458 13.9125 8.12109 14.3501 7.6835C14.7877 7.24592 15.3812 7.00009 16 7.00009C16.6189 7.00009 17.2124 7.24592 17.6499 7.6835C18.0875 8.12109 18.3334 8.71458 18.3334 9.33342C18.3334 9.95226 18.0875 10.5458 17.6499 10.9833C17.2124 11.4209 16.6189 11.6668 16 11.6668C15.3812 11.6668 14.7877 11.4209 14.3501 10.9833C13.9125 10.5458 13.6667 9.95226 13.6667 9.33342ZM11.5787 19.2641C14.0667 18.7828 16.7294 18.8908 18.8854 20.1761C19.1867 20.3561 19.472 20.5814 19.7187 20.8588C20.22 21.4228 20.4787 22.1214 20.4907 22.8228C20.7454 22.6588 21.0014 22.4761 21.26 22.2801L23.6707 20.4601C24.2743 20.0166 25.0037 19.7774 25.7527 19.7774C26.5017 19.7774 27.2311 20.0166 27.8347 20.4601C28.9494 21.3001 29.3947 22.8108 28.596 24.0908C28.0294 24.9988 27.1747 26.2561 26.3067 27.0614C25.4267 27.8748 24.1774 28.5601 23.232 29.0161C22.0827 29.5708 20.8427 29.8774 19.636 30.0721C17.1694 30.4721 14.604 30.4108 12.1667 29.9081C10.9098 29.6494 9.62994 29.5185 8.3467 29.5174H5.33336C5.06815 29.5174 4.81379 29.4121 4.62626 29.2245C4.43872 29.037 4.33336 28.7826 4.33336 28.5174C4.33336 28.2522 4.43872 27.9979 4.62626 27.8103C4.81379 27.6228 5.06815 27.5174 5.33336 27.5174H8.3467C9.7627 27.5174 11.1934 27.6654 12.5707 27.9494C14.7923 28.4053 17.078 28.4554 19.3174 28.0974C20.4214 27.9188 21.4534 27.6534 22.3627 27.2148C23.2734 26.7748 24.2974 26.1961 24.9467 25.5948C25.604 24.9854 26.3387 23.9308 26.9 23.0321C27.0694 22.7601 27.0454 22.3694 26.6307 22.0561C26.1374 21.6828 25.368 21.6828 24.876 22.0561L22.4667 23.8761C21.504 24.6028 20.32 25.3801 18.852 25.6148C18.6982 25.6391 18.544 25.6605 18.3894 25.6788C17.4551 25.7865 16.5121 25.7955 15.576 25.7054C15.443 25.6962 15.3131 25.6605 15.194 25.6004C15.075 25.5402 14.9692 25.4569 14.8828 25.3552C14.7965 25.2535 14.7313 25.1356 14.6912 25.0084C14.6511 24.8812 14.6369 24.7472 14.6493 24.6144C14.6618 24.4816 14.7007 24.3527 14.7637 24.2351C14.8268 24.1176 14.9127 24.0138 15.0164 23.93C15.1202 23.8462 15.2397 23.7839 15.3678 23.747C15.496 23.71 15.6302 23.699 15.7627 23.7148C16.5024 23.7866 17.2473 23.7853 17.9867 23.7108L18.0267 23.7068C18.1511 23.6296 18.2568 23.5257 18.3362 23.4027C18.4156 23.2797 18.4667 23.1406 18.4859 22.9954C18.505 22.8503 18.4917 22.7027 18.4469 22.5633C18.402 22.4239 18.3268 22.2962 18.2267 22.1894C18.1205 22.0725 17.9968 21.9726 17.86 21.8934C16.2854 20.9534 14.1814 20.7974 11.9587 21.2268C9.7877 21.6635 7.72959 22.5417 5.91203 23.8068C5.80487 23.8827 5.68379 23.9369 5.55571 23.9661C5.42763 23.9953 5.29505 23.999 5.16554 23.9769C5.03604 23.9549 4.91214 23.9076 4.80092 23.8376C4.68971 23.7677 4.59336 23.6766 4.51736 23.5694C4.44137 23.4623 4.38723 23.3412 4.35803 23.2131C4.32883 23.085 4.32515 22.9524 4.34719 22.8229C4.36922 22.6934 4.41655 22.5695 4.48648 22.4583C4.5564 22.3471 4.64754 22.2507 4.7547 22.1748C6.80489 20.7454 9.12801 19.7545 11.5787 19.2641Z" fill="white"/>
</svg>
