<svg width="32" height="32" viewBox="0 0 32 32" fill="none" xmlns="http://www.w3.org/2000/svg">
<path fill-rule="evenodd" clip-rule="evenodd" d="M16.0001 3.66675C12.7291 3.66675 9.59205 4.96615 7.2791 7.2791C4.96615 9.59205 3.66675 12.7291 3.66675 16.0001C3.66675 19.2711 4.96615 22.4081 7.2791 24.7211C9.59205 27.034 12.7291 28.3334 16.0001 28.3334C19.2711 28.3334 22.4081 27.034 24.7211 24.7211C27.034 22.4081 28.3334 19.2711 28.3334 16.0001C28.3334 12.7291 27.034 9.59205 24.7211 7.2791C22.4081 4.96615 19.2711 3.66675 16.0001 3.66675ZM1.66675 16.0001C1.66675 8.08408 8.08408 1.66675 16.0001 1.66675C23.9161 1.66675 30.3334 8.08408 30.3334 16.0001C30.3334 23.9161 23.9161 30.3334 16.0001 30.3334C8.08408 30.3334 1.66675 23.9161 1.66675 16.0001ZM9.07075 15.0001C8.97584 15.6634 8.97584 16.3368 9.07075 17.0001H13.3334C13.5986 17.0001 13.853 17.1054 14.0405 17.293C14.2281 17.4805 14.3334 17.7349 14.3334 18.0001C14.3334 18.2653 14.2281 18.5197 14.0405 18.7072C13.853 18.8947 13.5986 19.0001 13.3334 19.0001H9.67342C10.0876 19.874 10.6783 20.6527 11.4084 21.2869C12.1385 21.9212 12.9921 22.3973 13.9154 22.6852C14.8387 22.973 15.8116 23.0665 16.7728 22.9596C17.734 22.8527 18.6626 22.5478 19.5001 22.0641C19.6139 21.9974 19.7397 21.9538 19.8704 21.936C20.001 21.9181 20.1339 21.9263 20.2614 21.96C20.3889 21.9937 20.5085 22.0523 20.6133 22.1324C20.718 22.2125 20.8059 22.3125 20.8718 22.4268C20.9378 22.541 20.9805 22.6671 20.9975 22.7979C21.0145 22.9286 21.0054 23.0615 20.9709 23.1888C20.9363 23.316 20.877 23.4352 20.7962 23.5395C20.7153 23.6437 20.6147 23.7309 20.5001 23.7961C19.3556 24.4565 18.0798 24.8568 16.7632 24.9688C15.4466 25.0808 14.1215 24.9016 12.8819 24.444C11.6423 23.9864 10.5186 23.2616 9.5906 22.321C8.66258 21.3804 7.95295 20.247 7.51208 19.0014H6.66675C6.40135 19.0014 6.14683 18.896 5.95917 18.7083C5.77151 18.5207 5.66608 18.2661 5.66608 18.0007C5.66608 17.7354 5.77151 17.4808 5.95917 17.2932C6.14683 17.1055 6.40135 17.0001 6.66675 17.0001H7.05475C6.98127 16.3354 6.98127 15.6647 7.05475 15.0001H6.66675C6.40153 15.0001 6.14718 14.8947 5.95964 14.7072C5.7721 14.5197 5.66675 14.2653 5.66675 14.0001C5.66675 13.7349 5.7721 13.4805 5.95964 13.293C6.14718 13.1054 6.40153 13.0001 6.66675 13.0001H7.51208C7.95277 11.7541 8.66233 10.6205 9.59039 9.67961C10.5184 8.73872 11.6423 8.01366 12.882 7.5559C14.1218 7.09815 15.4471 6.91892 16.7639 7.03094C18.0808 7.14296 19.3568 7.54349 20.5014 8.20408C20.6151 8.26992 20.7148 8.35751 20.7947 8.46185C20.8745 8.5662 20.9331 8.68525 20.9669 8.81222C21.0008 8.93919 21.0093 9.07159 20.992 9.20185C20.9747 9.33211 20.9319 9.45769 20.8661 9.57141C20.8002 9.68514 20.7127 9.78478 20.6083 9.86466C20.504 9.94453 20.3849 10.0031 20.2579 10.0369C20.131 10.0708 19.9986 10.0793 19.8683 10.062C19.7381 10.0447 19.6125 10.0019 19.4987 9.93608C18.6613 9.45239 17.7327 9.14748 16.7715 9.04058C15.8103 8.93369 14.8374 9.02713 13.9141 9.31501C12.9908 9.60289 12.1372 10.079 11.4071 10.7132C10.677 11.3475 10.0862 12.1261 9.67208 13.0001H13.3334C13.5986 13.0001 13.853 13.1054 14.0405 13.293C14.2281 13.4805 14.3334 13.7349 14.3334 14.0001C14.3334 14.2653 14.2281 14.5197 14.0405 14.7072C13.853 14.8947 13.5986 15.0001 13.3334 15.0001H9.07075Z" fill="white"/>
</svg>
