<svg width="33" height="32" viewBox="0 0 33 32" fill="none" xmlns="http://www.w3.org/2000/svg">
<path d="M3.1665 15.9998C3.1665 9.7145 3.1665 6.57184 5.1185 4.6185C7.07317 2.6665 10.2145 2.6665 16.4998 2.6665C22.7852 2.6665 25.9278 2.6665 27.8798 4.6185C29.8332 6.57317 29.8332 9.7145 29.8332 15.9998C29.8332 22.2852 29.8332 25.4278 27.8798 27.3798C25.9292 29.3332 22.7852 29.3332 16.4998 29.3332C10.2145 29.3332 7.07184 29.3332 5.1185 27.3798C3.1665 25.4292 3.1665 22.2852 3.1665 15.9998Z" stroke="white" stroke-width="2"/>
<path d="M8.5 21.0663L10.024 22.6663L13.8333 18.6663M8.5 11.733L10.024 13.333L13.8333 9.33301" stroke="white" stroke-width="2" stroke-linecap="round" stroke-linejoin="round"/>
<path d="M17.833 12H24.4997M17.833 21.3333H24.4997" stroke="white" stroke-width="2" stroke-linecap="round"/>
</svg>
