<svg width="33" height="32" viewBox="0 0 33 32" fill="none" xmlns="http://www.w3.org/2000/svg">
<path fill-rule="evenodd" clip-rule="evenodd" d="M20.212 1.96414C20.398 2.15288 20.5015 2.40774 20.4998 2.67274C20.498 2.93774 20.3912 3.19122 20.2027 3.37748L18.928 4.63748C20.0373 4.64948 21.104 4.67614 22.0667 4.74148C22.8947 4.79748 23.6707 4.88281 24.3467 5.01748C25.008 5.14948 25.6467 5.34148 26.1533 5.64681C27.0935 6.21552 27.8858 6.99864 28.4653 7.93214C29.0227 8.82948 29.2667 9.84281 29.3853 11.0655C29.5 12.2615 29.5 13.7561 29.5 15.6521V15.7041C29.5 15.9694 29.3946 16.2237 29.2071 16.4113C29.0196 16.5988 28.7652 16.7041 28.5 16.7041C28.2348 16.7041 27.9804 16.5988 27.7929 16.4113C27.6054 16.2237 27.5 15.9694 27.5 15.7041C27.5 13.7441 27.5 12.3455 27.3933 11.2575C27.2907 10.1828 27.0933 9.51481 26.7667 8.98681C26.353 8.32161 25.7879 7.76374 25.1173 7.35881C24.9027 7.22814 24.528 7.09214 23.9573 6.97881C23.3973 6.86814 22.7173 6.78948 21.932 6.73614C20.9371 6.67542 19.9407 6.64251 18.944 6.63748L20.2027 7.88148C20.2986 7.97318 20.3753 8.08305 20.4283 8.20469C20.4813 8.32633 20.5096 8.4573 20.5115 8.58998C20.5134 8.72265 20.4888 8.85438 20.4393 8.97748C20.3898 9.10058 20.3162 9.2126 20.223 9.307C20.1297 9.4014 20.0186 9.47629 19.8962 9.52733C19.7737 9.57836 19.6423 9.6045 19.5096 9.60424C19.3769 9.60397 19.2456 9.5773 19.1233 9.52578C19.001 9.47426 18.8902 9.39892 18.7973 9.30414L15.7973 6.34148C15.7032 6.24847 15.6285 6.1377 15.5775 6.01559C15.5265 5.89349 15.5002 5.76247 15.5002 5.63014C15.5002 5.49781 15.5265 5.3668 15.5775 5.24469C15.6285 5.12259 15.7032 5.01182 15.7973 4.91881L18.7973 1.95481C18.9861 1.76878 19.2409 1.66526 19.5059 1.66701C19.7709 1.66876 20.0244 1.77563 20.2107 1.96414H20.212ZM13.9 5.62814C13.9004 5.75947 13.8748 5.88957 13.8249 6.01103C13.775 6.13249 13.7016 6.24293 13.609 6.33603C13.5164 6.42914 13.4063 6.50309 13.2851 6.55367C13.164 6.60425 13.034 6.63046 12.9027 6.63081C9.82933 6.64014 8.89333 6.74681 7.88267 7.35881C7.21229 7.76337 6.64713 8.32077 6.23333 8.98548C5.90667 9.51481 5.70933 10.1828 5.60667 11.2575C5.5 12.3455 5.5 13.7441 5.5 15.7041V16.8895C5.5 18.2841 5.5 19.2788 5.55467 20.0628C5.608 20.8361 5.71067 21.3321 5.87867 21.7335C6.39078 22.9457 7.36342 23.9049 8.58267 24.4001C9.18267 24.6468 9.95733 24.7428 11.464 24.7681H11.5053C11.98 24.7761 12.4027 24.7841 12.7547 24.8215C13.1347 24.8641 13.5147 24.9495 13.8813 25.1601C14.2453 25.3681 14.508 25.6481 14.732 25.9521C14.9373 26.2321 15.148 26.5828 15.3813 26.9735L16.0533 28.0935C16.1001 28.1692 16.1661 28.2312 16.2445 28.2734C16.3229 28.3155 16.411 28.3362 16.5 28.3335C16.589 28.3365 16.6773 28.3159 16.7557 28.2737C16.8342 28.2316 16.9001 28.1694 16.9467 28.0935L17.6173 26.9735C17.852 26.5828 18.0627 26.2308 18.268 25.9521C18.4921 25.6308 18.7821 25.3608 19.1187 25.1601C19.4659 24.9688 19.8501 24.8538 20.2453 24.8228C20.5973 24.7828 21.0187 24.7761 21.4947 24.7695L21.5347 24.7681C23.0413 24.7415 23.816 24.6481 24.4173 24.4015C25.0212 24.1561 25.5708 23.7942 26.0347 23.3364C26.4987 22.8787 26.8679 22.334 27.1213 21.7335C27.3467 21.1948 27.448 20.5068 27.4827 19.2321C27.4897 18.9669 27.6019 18.7154 27.7944 18.5328C27.987 18.3503 28.2441 18.2517 28.5093 18.2588C28.7746 18.2659 29.0261 18.378 29.2086 18.5706C29.3912 18.7631 29.4897 19.0203 29.4827 19.2855C29.4467 20.5948 29.344 21.6028 28.9653 22.5068C28.6105 23.3497 28.0931 24.1144 27.4427 24.7572C26.7923 25.4001 26.0216 25.9085 25.1747 26.2535C24.1907 26.6548 23.076 26.7415 21.5693 26.7681C21.2 26.7664 20.8308 26.7807 20.4627 26.8108C20.2307 26.8361 20.1533 26.8721 20.1147 26.8935C20.0196 26.9587 19.9389 27.0426 19.8773 27.1401C19.6762 27.4306 19.4876 27.7296 19.312 28.0361L18.6613 29.1215C17.6933 30.7375 15.3067 30.7375 14.3387 29.1215L13.688 28.0361C13.5124 27.7296 13.3238 27.4306 13.1227 27.1401C12.9933 26.9655 12.9267 26.9175 12.8853 26.8935C12.8467 26.8721 12.7693 26.8361 12.5387 26.8108C12.1701 26.7814 11.8004 26.7672 11.4307 26.7681C9.924 26.7415 8.80933 26.6548 7.82533 26.2521C6.9784 25.9072 6.20772 25.3987 5.55731 24.7559C4.9069 24.113 4.3895 23.3483 4.03467 22.5055C3.74667 21.8188 3.62133 21.0788 3.56 20.2001C3.5 19.3388 3.5 18.2748 3.5 16.9268V15.6508C3.5 13.7561 3.5 12.2615 3.61467 11.0641C3.73333 9.84281 3.97733 8.82948 4.53467 7.93214C5.11425 6.99864 5.9065 6.21552 6.84667 5.64681C8.40667 4.70281 9.916 4.64014 12.8973 4.63081C13.0287 4.63046 13.1588 4.65598 13.2802 4.70591C13.4017 4.75584 13.5121 4.82921 13.6052 4.92182C13.6983 5.01443 13.7723 5.12447 13.8229 5.24566C13.8734 5.36685 13.8997 5.49682 13.9 5.62814Z" fill="white"/>
</svg>
