<svg width="32" height="32" viewBox="0 0 32 32" fill="none" xmlns="http://www.w3.org/2000/svg">
<path fill-rule="evenodd" clip-rule="evenodd" d="M14.5973 1.66675H17.4026C18.6013 1.66675 19.6 1.66675 20.392 1.77341C21.2293 1.88541 21.9853 2.13341 22.592 2.74008C23.2 3.34808 23.448 4.10408 23.56 4.94008C23.5906 5.16675 23.6133 5.40808 23.6266 5.66675C24.4133 5.66675 25.0773 5.67208 25.6253 5.72808C26.256 5.79208 26.8426 5.93208 27.3706 6.28408C27.7706 6.55208 28.1146 6.89608 28.3826 7.29741C28.7346 7.82408 28.8746 8.41075 28.9386 9.04142C29 9.64408 29 10.3894 29 11.2814V28.3334H29.3333C29.5985 28.3334 29.8529 28.4388 30.0404 28.6263C30.2279 28.8138 30.3333 29.0682 30.3333 29.3334C30.3333 29.5986 30.2279 29.853 30.0404 30.0405C29.8529 30.2281 29.5985 30.3334 29.3333 30.3334H2.66663C2.40141 30.3334 2.14706 30.2281 1.95952 30.0405C1.77198 29.853 1.66663 29.5986 1.66663 29.3334C1.66663 29.0682 1.77198 28.8138 1.95952 28.6263C2.14706 28.4388 2.40141 28.3334 2.66663 28.3334H2.99996V11.2827C2.99996 10.3894 2.99996 9.64408 3.06129 9.04142C3.12529 8.41075 3.26529 7.82408 3.61729 7.29608C3.88529 6.89608 4.22929 6.55208 4.63063 6.28408C5.15729 5.93208 5.74396 5.79208 6.37463 5.72808C6.92129 5.67208 7.58663 5.66675 8.37196 5.66675C8.38796 5.40808 8.40929 5.16675 8.43863 4.94141C8.55196 4.10408 8.79996 3.34808 9.40663 2.74141C10.0146 2.13341 10.7706 1.88541 11.6066 1.77341C12.4 1.66675 13.4 1.66675 14.5973 1.66675ZM8.33329 7.66675C7.55596 7.66675 7.00796 7.67342 6.57729 7.71741C6.10396 7.76542 5.88529 7.85075 5.74129 7.94808C5.55923 8.06971 5.40292 8.22602 5.28129 8.40808C5.18396 8.55208 5.09863 8.77075 5.05063 9.24408C5.00129 9.73341 4.99996 10.3774 4.99996 11.3334V28.3334H8.33329V19.6667H7.33329C7.06808 19.6667 6.81372 19.5614 6.62619 19.3739C6.43865 19.1863 6.33329 18.932 6.33329 18.6667C6.33329 18.4015 6.43865 18.1472 6.62619 17.9596C6.81372 17.7721 7.06808 17.6667 7.33329 17.6667H8.33329V15.6667H7.33329C7.06808 15.6667 6.81372 15.5614 6.62619 15.3739C6.43865 15.1863 6.33329 14.932 6.33329 14.6667C6.33329 14.4015 6.43865 14.1472 6.62619 13.9596C6.81372 13.7721 7.06808 13.6667 7.33329 13.6667H8.33329V11.6667H7.33329C7.06808 11.6667 6.81372 11.5614 6.62619 11.3739C6.43865 11.1863 6.33329 10.932 6.33329 10.6667C6.33329 10.4015 6.43865 10.1472 6.62619 9.95964C6.81372 9.77211 7.06808 9.66675 7.33329 9.66675H8.33329V7.66675ZM10.3333 28.3334H15V25.3334C15 25.0682 15.1053 24.8138 15.2929 24.6263C15.4804 24.4388 15.7347 24.3334 16 24.3334C16.2652 24.3334 16.5195 24.4388 16.7071 24.6263C16.8946 24.8138 17 25.0682 17 25.3334V28.3334H21.6666V8.00008C21.6666 6.71475 21.664 5.85075 21.5773 5.20675C21.4946 4.59208 21.352 4.32808 21.1773 4.15475C21.004 3.98141 20.7413 3.83875 20.1266 3.75475C19.4826 3.66941 18.6186 3.66675 17.3333 3.66675H14.6666C13.3813 3.66675 12.5173 3.66941 11.8733 3.75608C11.2586 3.83875 10.9946 3.98142 10.8213 4.15608C10.648 4.32941 10.5053 4.59208 10.4213 5.20675C10.3373 5.85075 10.3333 6.71475 10.3333 8.00008V28.3334ZM23.6666 11.6667H24.6666C24.9318 11.6667 25.1862 11.5614 25.3737 11.3739C25.5613 11.1863 25.6666 10.932 25.6666 10.6667C25.6666 10.4015 25.5613 10.1472 25.3737 9.95964C25.1862 9.77211 24.9318 9.66675 24.6666 9.66675H23.6666V7.66675C24.444 7.66675 24.992 7.67342 25.4226 7.71741C25.896 7.76542 26.1146 7.85075 26.26 7.94808C26.4413 8.06808 26.5973 8.22542 26.7186 8.40808C26.816 8.55208 26.9013 8.77075 26.9493 9.24408C26.9986 9.73341 27 10.3774 27 11.3334V28.3334H23.6666V19.6667H24.6666C24.9318 19.6667 25.1862 19.5614 25.3737 19.3739C25.5613 19.1863 25.6666 18.932 25.6666 18.6667C25.6666 18.4015 25.5613 18.1472 25.3737 17.9596C25.1862 17.7721 24.9318 17.6667 24.6666 17.6667H23.6666V15.6667H24.6666C24.9318 15.6667 25.1862 15.5614 25.3737 15.3739C25.5613 15.1863 25.6666 14.932 25.6666 14.6667C25.6666 14.4015 25.5613 14.1472 25.3737 13.9596C25.1862 13.7721 24.9318 13.6667 24.6666 13.6667H23.6666V11.6667ZM16 7.66675C15.5579 7.66675 15.134 7.84234 14.8214 8.1549C14.5089 8.46746 14.3333 8.89139 14.3333 9.33342C14.3333 9.77544 14.5089 10.1994 14.8214 10.5119C15.134 10.8245 15.5579 11.0001 16 11.0001C16.442 11.0001 16.8659 10.8245 17.1785 10.5119C17.491 10.1994 17.6666 9.77544 17.6666 9.33342C17.6666 8.89139 17.491 8.46746 17.1785 8.1549C16.8659 7.84234 16.442 7.66675 16 7.66675ZM12.3333 9.33342C12.3333 8.36095 12.7196 7.42832 13.4072 6.74069C14.0949 6.05306 15.0275 5.66675 16 5.66675C16.9724 5.66675 17.9051 6.05306 18.5927 6.74069C19.2803 7.42832 19.6666 8.36095 19.6666 9.33342C19.6666 10.3059 19.2803 11.2385 18.5927 11.9261C17.9051 12.6138 16.9724 13.0001 16 13.0001C15.0275 13.0001 14.0949 12.6138 13.4072 11.9261C12.7196 11.2385 12.3333 10.3059 12.3333 9.33342ZM12.3333 16.0001C12.3333 15.7349 12.4387 15.4805 12.6262 15.293C12.8137 15.1054 13.0681 15.0001 13.3333 15.0001H18.6666C18.9318 15.0001 19.1862 15.1054 19.3737 15.293C19.5613 15.4805 19.6666 15.7349 19.6666 16.0001C19.6666 16.2653 19.5613 16.5197 19.3737 16.7072C19.1862 16.8947 18.9318 17.0001 18.6666 17.0001H13.3333C13.0681 17.0001 12.8137 16.8947 12.6262 16.7072C12.4387 16.5197 12.3333 16.2653 12.3333 16.0001ZM12.3333 20.0001C12.3333 19.7349 12.4387 19.4805 12.6262 19.293C12.8137 19.1054 13.0681 19.0001 13.3333 19.0001H18.6666C18.9318 19.0001 19.1862 19.1054 19.3737 19.293C19.5613 19.4805 19.6666 19.7349 19.6666 20.0001C19.6666 20.2653 19.5613 20.5197 19.3737 20.7072C19.1862 20.8947 18.9318 21.0001 18.6666 21.0001H13.3333C13.0681 21.0001 12.8137 20.8947 12.6262 20.7072C12.4387 20.5197 12.3333 20.2653 12.3333 20.0001Z" fill="white"/>
</svg>
