<svg width="32" height="32" viewBox="0 0 32 32" fill="none" xmlns="http://www.w3.org/2000/svg">
<path d="M16 10.3335C15.172 10.3335 14.5 11.0055 14.5 11.8335C14.5 12.0987 14.3946 12.3531 14.2071 12.5406C14.0196 12.7281 13.7652 12.8335 13.5 12.8335C13.2348 12.8335 12.9804 12.7281 12.7929 12.5406C12.6054 12.3531 12.5 12.0987 12.5 11.8335C12.5 11.2206 12.6609 10.6184 12.9666 10.0872C13.2724 9.55599 13.7123 9.1144 14.2423 8.8066C14.7724 8.4988 15.3739 8.33558 15.9868 8.33328C16.5997 8.33097 17.2025 8.48965 17.7348 8.79346C18.2672 9.09726 18.7104 9.53552 19.0201 10.0644C19.3299 10.5933 19.4953 11.1942 19.4999 11.8071C19.5045 12.42 19.348 13.0234 19.0462 13.5568C18.7444 14.0903 18.3077 14.5351 17.78 14.8468C17.5483 14.9766 17.339 15.1427 17.16 15.3388C17.024 15.4988 17 15.6055 17 15.6668V17.3335C17 17.5987 16.8946 17.8531 16.7071 18.0406C16.5196 18.2281 16.2652 18.3335 16 18.3335C15.7348 18.3335 15.4804 18.2281 15.2929 18.0406C15.1054 17.8531 15 17.5987 15 17.3335V15.6668C15 14.9922 15.296 14.4455 15.636 14.0442C15.972 13.6482 16.3907 13.3455 16.7627 13.1255C17.0471 12.959 17.2687 12.7033 17.3932 12.3981C17.5177 12.0929 17.5381 11.7552 17.4512 11.4372C17.3644 11.1193 17.1751 10.8388 16.9128 10.6393C16.6504 10.4398 16.3296 10.3323 16 10.3335ZM16 22.6668C16.3536 22.6668 16.6928 22.5263 16.9428 22.2763C17.1929 22.0263 17.3333 21.6871 17.3333 21.3335C17.3333 20.9799 17.1929 20.6407 16.9428 20.3907C16.6928 20.1406 16.3536 20.0002 16 20.0002C15.6464 20.0002 15.3072 20.1406 15.0572 20.3907C14.8071 20.6407 14.6667 20.9799 14.6667 21.3335C14.6667 21.6871 14.8071 22.0263 15.0572 22.2763C15.3072 22.5263 15.6464 22.6668 16 22.6668Z" fill="white"/>
<path fill-rule="evenodd" clip-rule="evenodd" d="M15.924 1.66675H16.076C19.1546 1.66675 21.5666 1.66675 23.4493 1.92008C25.3746 2.17875 26.8946 2.72008 28.088 3.91208C29.2813 5.10541 29.8213 6.62541 30.08 8.55208C30.3333 10.4334 30.3333 12.8454 30.3333 15.9241V16.0761C30.3333 19.1547 30.3333 21.5667 30.08 23.4494C29.8213 25.3747 29.28 26.8947 28.088 28.0881C26.8946 29.2814 25.3746 29.8214 23.448 30.0801C21.5666 30.3334 19.1546 30.3334 16.076 30.3334H15.924C12.8453 30.3334 10.4333 30.3334 8.55063 30.0801C6.62529 29.8214 5.10529 29.2801 3.91196 28.0881C2.71863 26.8947 2.17863 25.3748 1.91996 23.4481C1.66663 21.5667 1.66663 19.1547 1.66663 16.0761V15.9241C1.66663 12.8454 1.66663 10.4334 1.91996 8.55075C2.17863 6.62541 2.71996 5.10541 3.91196 3.91208C5.10529 2.71875 6.62529 2.17875 8.55196 1.92008C10.4333 1.66675 12.8453 1.66675 15.924 1.66675ZM8.81729 3.90141C7.11329 4.13075 6.08529 4.56808 5.32663 5.32675C4.56663 6.08675 4.13063 7.11341 3.90129 8.81875C3.66929 10.5521 3.66663 12.8294 3.66663 16.0001C3.66663 19.1707 3.66929 21.4481 3.90129 23.1814C4.13063 24.8867 4.56796 25.9147 5.32663 26.6747C6.08663 27.4334 7.11329 27.8694 8.81863 28.0987C10.552 28.3307 12.8293 28.3334 16 28.3334C19.1706 28.3334 21.448 28.3307 23.1813 28.0987C24.8866 27.8694 25.9146 27.4321 26.6746 26.6734C27.4333 25.9134 27.8693 24.8867 28.0986 23.1814C28.3306 21.4481 28.3333 19.1707 28.3333 16.0001C28.3333 12.8294 28.3306 10.5521 28.0986 8.81875C27.8693 7.11341 27.432 6.08541 26.6733 5.32541C25.9133 4.56675 24.8866 4.13075 23.1813 3.90141C21.448 3.66941 19.1706 3.66675 16 3.66675C12.8293 3.66675 10.5506 3.66941 8.81729 3.90141Z" fill="white"/>
</svg>
